<?xml version="1.0" encoding="utf-8"?>
<!-- Generator: Adobe Illustrator 21.0.2, SVG Export Plug-In . SVG Version: 6.00 Build 0)  -->
<svg version="1.1" id="Layer_1" xmlns="http://www.w3.org/2000/svg" xmlns:xlink="http://www.w3.org/1999/xlink" x="0px" y="0px"
	 viewBox="0 0 50 50" style="enable-background:new 0 0 50 50;" xml:space="preserve">
<style type="text/css">
	.st0{fill:#828282;}
</style>
<title>4592C6A5-E198-4282-8A26-EEE79FF9696C</title>
<path class="st0" d="M46.4,50H3.6c-0.9,0-1.8-0.4-2.5-1.1c-0.5-0.5-0.7-1.2-0.7-2.1c0.2-3.7,1.1-10.2,3.3-13.2
	c2.6-3.3,6.3-3.9,9.8-4.4c0.9-0.2,1.8-0.4,2.6-0.5c0.7-0.2,1.4-0.9,1.8-2.3c0-0.4-0.2-0.5-0.2-0.7c-2.8-3-4.4-7.4-4.4-11.8
	c0-7.7,5.1-14,11.6-14s11.6,6.3,11.6,14c0,4.4-1.6,8.8-4.2,11.9c-0.2,0.2-0.2,0.4-0.2,0.5c0.4,1.4,0.9,2.3,1.8,2.5s1.8,0.4,2.6,0.5
	c3.3,0.5,7.2,1.1,9.8,4.4l0,0c2.3,3,3.2,9.5,3.3,13.2c0,0.9-0.2,1.6-0.7,2.1C48.1,49.6,47.2,50,46.4,50z M25,2.3
	c-5.1,0-9.3,5.3-9.3,11.9c0,3.7,1.4,7.7,3.7,10.5c0.7,0.7,0.9,1.8,0.5,2.6c-0.7,2.8-2.3,3.7-3.3,3.9c-0.9,0.2-1.8,0.4-2.8,0.5
	c-3.2,0.5-6.3,0.9-8.4,3.5C3.9,37,2.9,41.4,2.5,47.2c0,0.2,0.2,0.4,0.2,0.5c0.2,0.2,0.5,0.4,0.7,0.4h42.8c0.4,0,0.5-0.2,0.7-0.4
	s0.2-0.4,0.2-0.5c-0.4-5.8-1.4-10.2-2.8-11.9l0,0c-2.1-2.6-5.3-3.2-8.4-3.5c-0.9-0.2-1.9-0.4-2.8-0.5c-1.6-0.4-2.8-1.8-3.3-4
	c-0.2-0.9,0-1.9,0.5-2.6c2.3-2.6,3.7-6.7,3.7-10.5C34.3,7.5,30,2.3,25,2.3z"/>
</svg>
