<svg width="19" height="16" viewBox="0 0 19 16" xmlns="http://www.w3.org/2000/svg"><title>F52C3894-EE4F-4143-8CB7-BC66870836A6</title><g fill-rule="nonzero" fill="#FFF"><path d="M1.1.997v2.708c0 .272.225.497.5.497h3c.279 0 .5-.221.5-.497V.997A.501.501 0 0 0 4.6.5h-3c-.279 0-.5.221-.5.497zm-.5 0C.6.447 1.044 0 1.6 0h3c.552 0 1 .45 1 .997v2.708c0 .55-.444.997-1 .997h-3c-.552 0-1-.45-1-.997V.997zM7.514.997v2.708c0 .272.226.497.5.497h3c.28 0 .5-.221.5-.497V.997a.501.501 0 0 0-.5-.497h-3c-.278 0-.5.221-.5.497zm-.5 0c0-.55.444-.997 1-.997h3c.553 0 1 .45 1 .997v2.708c0 .55-.443.997-1 .997h-3c-.552 0-1-.45-1-.997V.997zM13.929.997v2.708c0 .272.225.497.5.497h3c.278 0 .5-.221.5-.497V.997a.501.501 0 0 0-.5-.497h-3c-.28 0-.5.221-.5.497zm-.5 0c0-.55.443-.997 1-.997h3c.552 0 1 .45 1 .997v2.708c0 .55-.444.997-1 .997h-3c-.553 0-1-.45-1-.997V.997zM1.1 6.483V9.19c0 .271.225.497.5.497h3c.279 0 .5-.221.5-.497V6.483a.501.501 0 0 0-.5-.497h-3c-.279 0-.5.221-.5.497zm-.5 0c0-.55.444-.997 1-.997h3c.552 0 1 .45 1 .997V9.19c0 .55-.444.997-1 .997h-3c-.552 0-1-.451-1-.997V6.483zM7.514 6.483V9.19c0 .271.226.497.5.497h3c.28 0 .5-.221.5-.497V6.483a.501.501 0 0 0-.5-.497h-3c-.278 0-.5.221-.5.497zm-.5 0c0-.55.444-.997 1-.997h3c.553 0 1 .45 1 .997V9.19c0 .55-.443.997-1 .997h-3c-.552 0-1-.451-1-.997V6.483zM13.929 6.483V9.19c0 .271.225.497.5.497h3c.278 0 .5-.221.5-.497V6.483a.501.501 0 0 0-.5-.497h-3c-.28 0-.5.221-.5.497zm-.5 0c0-.55.443-.997 1-.997h3c.552 0 1 .45 1 .997V9.19c0 .55-.444.997-1 .997h-3c-.553 0-1-.451-1-.997V6.483zM1.1 11.969v2.707c0 .272.225.497.5.497h3c.279 0 .5-.22.5-.497V11.97a.501.501 0 0 0-.5-.498h-3c-.279 0-.5.222-.5.498zm-.5 0c0-.551.444-.998 1-.998h3c.552 0 1 .451 1 .998v2.707c0 .551-.444.997-1 .997h-3c-.552 0-1-.45-1-.997V11.97zM7.514 11.969v2.707c0 .272.226.497.5.497h3c.28 0 .5-.22.5-.497V11.97a.501.501 0 0 0-.5-.498h-3c-.278 0-.5.222-.5.498zm-.5 0c0-.551.444-.998 1-.998h3c.553 0 1 .451 1 .998v2.707c0 .551-.443.997-1 .997h-3c-.552 0-1-.45-1-.997V11.97zM13.929 11.969v2.707c0 .272.225.497.5.497h3c.278 0 .5-.22.5-.497V11.97a.501.501 0 0 0-.5-.498h-3c-.28 0-.5.222-.5.498zm-.5 0c0-.551.443-.998 1-.998h3c.552 0 1 .451 1 .998v2.707c0 .551-.444.997-1 .997h-3c-.553 0-1-.45-1-.997V11.97z"/></g></svg>