<?xml version="1.0" encoding="utf-8"?>
<!-- Generator: Adobe Illustrator 21.0.2, SVG Export Plug-In . SVG Version: 6.00 Build 0)  -->
<svg version="1.1" id="Layer_1" xmlns="http://www.w3.org/2000/svg" xmlns:xlink="http://www.w3.org/1999/xlink" x="0px" y="0px"
	 viewBox="0 0 50 50" style="enable-background:new 0 0 50 50;" xml:space="preserve">
<title>F52C3894-EE4F-4143-8CB7-BC66870836A6</title>
<g>
	<path d="M2.1,6.2v7.4c0,0.7,0.6,1.4,1.4,1.4h8.2c0.8,0,1.4-0.6,1.4-1.4V6.2c0-0.7-0.6-1.4-1.4-1.4H3.4C2.7,4.8,2.1,5.4,2.1,6.2z
		 M0.7,6.2c0-1.5,1.2-2.7,2.7-2.7h8.2c1.5,0,2.7,1.2,2.7,2.7v7.4c0,1.5-1.2,2.7-2.7,2.7H3.4c-1.5,0-2.7-1.2-2.7-2.7
		C0.7,13.6,0.7,6.2,0.7,6.2z M19.6,6.2v7.4c0,0.7,0.6,1.4,1.4,1.4h8.2c0.8,0,1.4-0.6,1.4-1.4V6.2c0-0.7-0.6-1.4-1.4-1.4h-8.2
		C20.2,4.8,19.6,5.4,19.6,6.2z M18.2,6.2c0-1.5,1.2-2.7,2.7-2.7h8.2c1.5,0,2.7,1.2,2.7,2.7v7.4c0,1.5-1.2,2.7-2.7,2.7h-8.2
		c-1.5,0-2.7-1.2-2.7-2.7V6.2z M37.1,6.2v7.4c0,0.7,0.6,1.4,1.4,1.4h8.2c0.8,0,1.4-0.6,1.4-1.4V6.2c0-0.7-0.6-1.4-1.4-1.4h-8.2
		C37.7,4.8,37.1,5.4,37.1,6.2z M35.7,6.2c0-1.5,1.2-2.7,2.7-2.7h8.2c1.5,0,2.7,1.2,2.7,2.7v7.4c0,1.5-1.2,2.7-2.7,2.7h-8.2
		c-1.5,0-2.7-1.2-2.7-2.7C35.7,13.6,35.7,6.2,35.7,6.2z M2.1,21.1v7.4c0,0.7,0.6,1.4,1.4,1.4h8.2c0.8,0,1.4-0.6,1.4-1.4v-7.4
		c0-0.7-0.6-1.4-1.4-1.4H3.4C2.7,19.8,2.1,20.4,2.1,21.1z M0.7,21.1c0-1.5,1.2-2.7,2.7-2.7h8.2c1.5,0,2.7,1.2,2.7,2.7v7.4
		c0,1.5-1.2,2.7-2.7,2.7H3.4c-1.5,0-2.7-1.2-2.7-2.7C0.7,28.5,0.7,21.1,0.7,21.1z M19.6,21.1v7.4c0,0.7,0.6,1.4,1.4,1.4h8.2
		c0.8,0,1.4-0.6,1.4-1.4v-7.4c0-0.7-0.6-1.4-1.4-1.4h-8.2C20.2,19.8,19.6,20.4,19.6,21.1z M18.2,21.1c0-1.5,1.2-2.7,2.7-2.7h8.2
		c1.5,0,2.7,1.2,2.7,2.7v7.4c0,1.5-1.2,2.7-2.7,2.7h-8.2c-1.5,0-2.7-1.2-2.7-2.7V21.1z M37.1,21.1v7.4c0,0.7,0.6,1.4,1.4,1.4h8.2
		c0.8,0,1.4-0.6,1.4-1.4v-7.4c0-0.7-0.6-1.4-1.4-1.4h-8.2C37.7,19.8,37.1,20.4,37.1,21.1z M35.7,21.1c0-1.5,1.2-2.7,2.7-2.7h8.2
		c1.5,0,2.7,1.2,2.7,2.7v7.4c0,1.5-1.2,2.7-2.7,2.7h-8.2c-1.5,0-2.7-1.2-2.7-2.7C35.7,28.5,35.7,21.1,35.7,21.1z M2.1,36.1v7.4
		c0,0.7,0.6,1.4,1.4,1.4h8.2c0.8,0,1.4-0.6,1.4-1.4v-7.4c0-0.8-0.6-1.4-1.4-1.4H3.4C2.7,34.8,2.1,35.4,2.1,36.1L2.1,36.1z M0.7,36.1
		c0-1.5,1.2-2.7,2.7-2.7h8.2c1.5,0,2.7,1.2,2.7,2.7v7.4c0,1.5-1.2,2.7-2.7,2.7H3.4c-1.5,0-2.7-1.2-2.7-2.7L0.7,36.1L0.7,36.1z
		 M19.6,36.1v7.4c0,0.7,0.6,1.4,1.4,1.4h8.2c0.8,0,1.4-0.6,1.4-1.4v-7.4c0-0.8-0.6-1.4-1.4-1.4h-8.2C20.2,34.8,19.6,35.4,19.6,36.1
		L19.6,36.1z M18.2,36.1c0-1.5,1.2-2.7,2.7-2.7h8.2c1.5,0,2.7,1.2,2.7,2.7v7.4c0,1.5-1.2,2.7-2.7,2.7h-8.2c-1.5,0-2.7-1.2-2.7-2.7
		V36.1L18.2,36.1z M37.1,36.1v7.4c0,0.7,0.6,1.4,1.4,1.4h8.2c0.8,0,1.4-0.6,1.4-1.4v-7.4c0-0.8-0.6-1.4-1.4-1.4h-8.2
		C37.7,34.8,37.1,35.4,37.1,36.1L37.1,36.1z M35.7,36.1c0-1.5,1.2-2.7,2.7-2.7h8.2c1.5,0,2.7,1.2,2.7,2.7v7.4c0,1.5-1.2,2.7-2.7,2.7
		h-8.2c-1.5,0-2.7-1.2-2.7-2.7L35.7,36.1L35.7,36.1z"/>
</g>
</svg>
