<?xml version="1.0" encoding="utf-8"?>
<!-- Generator: Adobe Illustrator 21.0.2, SVG Export Plug-In . SVG Version: 6.00 Build 0)  -->
<svg version="1.1" id="Layer_1" xmlns="http://www.w3.org/2000/svg" xmlns:xlink="http://www.w3.org/1999/xlink" x="0px" y="0px"
	 viewBox="0 0 50 50" style="enable-background:new 0 0 50 50;" xml:space="preserve">
<style type="text/css">
	.st0{filter:url(#Adobe_OpacityMaskFilter);}
	.st1{fill:#FFFFFF;}
	.st2{mask:url(#j);}
	.st3{fill:none;stroke:#FFFFFF;}
</style>
<title>30BB755E-DAFB-49ED-A4F3-647746241285</title>
<defs>
	<filter id="Adobe_OpacityMaskFilter" filterUnits="userSpaceOnUse" x="15.6" y="16.5" width="18.8" height="16.7">
		<feColorMatrix  type="matrix" values="1 0 0 0 0  0 1 0 0 0  0 0 1 0 0  0 0 0 1 0"/>
	</filter>
</defs>
<mask maskUnits="userSpaceOnUse" x="15.6" y="16.5" width="18.8" height="16.7" id="j">
	<g class="st0">
		<path id="a" class="st1" d="M16.5,17h3c0.6,0,1,0.4,1,1v2.7c0,0.6-0.4,1-1,1h-3c-0.6,0-1-0.4-1-1V18C15.5,17.4,15.9,17,16.5,17z"
			/>
	</g>
	<g>
		<path id="b" class="st1" d="M22.9,17h3c0.6,0,1,0.4,1,1v2.7c0,0.6-0.4,1-1,1h-3c-0.6,0-1-0.4-1-1V18C21.9,17.4,22.4,17,22.9,17z"
			/>
	</g>
	<g>
		<path id="c" class="st1" d="M29.3,17h3c0.6,0,1,0.4,1,1v2.7c0,0.6-0.4,1-1,1h-3c-0.6,0-1-0.4-1-1V18C28.3,17.4,28.8,17,29.3,17z"
			/>
	</g>
	<g>
		<path id="d" class="st1" d="M16.5,22.5h3c0.6,0,1,0.4,1,1v2.7c0,0.6-0.4,1-1,1h-3c-0.6,0-1-0.4-1-1v-2.7
			C15.5,22.9,15.9,22.5,16.5,22.5z"/>
	</g>
	<g>
		<path id="e" class="st1" d="M22.9,22.5h3c0.6,0,1,0.4,1,1v2.7c0,0.6-0.4,1-1,1h-3c-0.6,0-1-0.4-1-1v-2.7
			C21.9,22.9,22.4,22.5,22.9,22.5z"/>
	</g>
	<g>
		<path id="f" class="st1" d="M29.3,22.5h3c0.6,0,1,0.4,1,1v2.7c0,0.6-0.4,1-1,1h-3c-0.6,0-1-0.4-1-1v-2.7
			C28.3,22.9,28.8,22.5,29.3,22.5z"/>
	</g>
	<g>
		<path id="g" class="st1" d="M16.5,28h3c0.6,0,1,0.4,1,1v2.7c0,0.6-0.4,1-1,1h-3c-0.6,0-1-0.4-1-1V29C15.5,28.4,15.9,28,16.5,28z"
			/>
	</g>
	<g>
		<path id="h" class="st1" d="M22.9,28h3c0.6,0,1,0.4,1,1v2.7c0,0.6-0.4,1-1,1h-3c-0.6,0-1-0.4-1-1V29C21.9,28.4,22.4,28,22.9,28z"
			/>
	</g>
	<g>
		<path id="i" class="st1" d="M29.3,28h3c0.6,0,1,0.4,1,1v2.7c0,0.6-0.4,1-1,1h-3c-0.6,0-1-0.4-1-1V29C28.3,28.4,28.8,28,29.3,28z"
			/>
	</g>
</mask>
<g transform="translate(.6)" class="st2">
	<g>
		<path id="a_1_" class="st3" d="M16.5,17h3c0.6,0,1,0.4,1,1v2.7c0,0.6-0.4,1-1,1h-3c-0.6,0-1-0.4-1-1V18C15.5,17.4,15.9,17,16.5,17
			z"/>
	</g>
	<g>
		<path id="b_1_" class="st3" d="M22.9,17h3c0.6,0,1,0.4,1,1v2.7c0,0.6-0.4,1-1,1h-3c-0.6,0-1-0.4-1-1V18C21.9,17.4,22.4,17,22.9,17
			z"/>
	</g>
	<g>
		<path id="c_1_" class="st3" d="M29.3,17h3c0.6,0,1,0.4,1,1v2.7c0,0.6-0.4,1-1,1h-3c-0.6,0-1-0.4-1-1V18C28.3,17.4,28.8,17,29.3,17
			z"/>
	</g>
	<g>
		<path id="d_1_" class="st3" d="M16.5,22.5h3c0.6,0,1,0.4,1,1v2.7c0,0.6-0.4,1-1,1h-3c-0.6,0-1-0.4-1-1v-2.7
			C15.5,22.9,15.9,22.5,16.5,22.5z"/>
	</g>
	<g>
		<path id="e_1_" class="st3" d="M22.9,22.5h3c0.6,0,1,0.4,1,1v2.7c0,0.6-0.4,1-1,1h-3c-0.6,0-1-0.4-1-1v-2.7
			C21.9,22.9,22.4,22.5,22.9,22.5z"/>
	</g>
	<g>
		<path id="f_1_" class="st3" d="M29.3,22.5h3c0.6,0,1,0.4,1,1v2.7c0,0.6-0.4,1-1,1h-3c-0.6,0-1-0.4-1-1v-2.7
			C28.3,22.9,28.8,22.5,29.3,22.5z"/>
	</g>
	<g>
		<path id="g_1_" class="st3" d="M16.5,28h3c0.6,0,1,0.4,1,1v2.7c0,0.6-0.4,1-1,1h-3c-0.6,0-1-0.4-1-1V29C15.5,28.4,15.9,28,16.5,28
			z"/>
	</g>
	<g>
		<path id="h_1_" class="st3" d="M22.9,28h3c0.6,0,1,0.4,1,1v2.7c0,0.6-0.4,1-1,1h-3c-0.6,0-1-0.4-1-1V29C21.9,28.4,22.4,28,22.9,28
			z"/>
	</g>
	<g>
		<path id="i_1_" class="st3" d="M29.3,28h3c0.6,0,1,0.4,1,1v2.7c0,0.6-0.4,1-1,1h-3c-0.6,0-1-0.4-1-1V29C28.3,28.4,28.8,28,29.3,28
			z"/>
	</g>
</g>
</svg>
