<?xml version="1.0" encoding="utf-8"?>
<!-- Generator: Adobe Illustrator 21.0.2, SVG Export Plug-In . SVG Version: 6.00 Build 0)  -->
<svg version="1.1" id="Layer_1" xmlns="http://www.w3.org/2000/svg" xmlns:xlink="http://www.w3.org/1999/xlink" x="0px" y="0px"
	 viewBox="0 0 50 50" style="enable-background:new 0 0 50 50;" xml:space="preserve">
<title>9999E1D6-365F-4A91-A995-5A3C445C6D92</title>
<g>
	<path d="M24.7,37.4c-1.2,0-2.4-0.3-3.2-1l-18.4-13c-0.9-0.6-1.4-1.5-1.4-2.4c0-0.9,0.5-1.8,1.4-2.4l18.4-13c1.7-1.2,4.7-1.2,6.5,0
		l18.4,13c0.9,0.6,1.4,1.5,1.4,2.4c0,0.9-0.5,1.8-1.4,2.4l-18.4,13C27.1,37,25.9,37.4,24.7,37.4z M24.7,5.4c-1.1,0-2.1,0.3-2.8,0.8
		l-18.4,13c-0.7,0.5-1.1,1.1-1.1,1.8c0,0.7,0.4,1.3,1.1,1.8l18.4,13c1.5,1,4.1,1,5.6,0l18.4-13c0.7-0.5,1.1-1.1,1.1-1.8
		c0-0.7-0.4-1.3-1.1-1.8l-18.4-13C26.8,5.7,25.8,5.4,24.7,5.4z"/>
	<path d="M28.1,24.1H16.9L28.4,16L28.1,24.1z M19.3,23.3h8l0.2-5.8L19.3,23.3z"/>
	<path d="M24.8,45.7c-1.3,0-2.4-0.3-3.3-1L1.7,30.6c-0.2-0.1-0.2-0.4-0.1-0.5C1.7,29.9,2,29.8,2.1,30l19.8,14.2
		c0.8,0.5,1.8,0.8,2.9,0.8c0,0,0,0,0,0c1.1,0,2.1-0.3,2.9-0.8l19.6-14c0.2-0.1,0.4-0.1,0.5,0.1c0.1,0.2,0.1,0.4-0.1,0.5l-19.6,14
		C27.2,45.4,26.1,45.7,24.8,45.7C24.8,45.7,24.8,45.7,24.8,45.7z"/>
</g>
</svg>
