<svg width="21" height="18" viewBox="0 0 21 18" xmlns="http://www.w3.org/2000/svg"><title>D015C9B0-D430-49F8-AD60-EA359385A3E6</title><g fill-rule="nonzero" fill="#FFF"><path d="M10.205 13.748c-.404 0-.777-.11-1.045-.3L1.47 8.012c-.485-.343-.485-.83 0-1.174L9.16 1.402c.27-.19.643-.3 1.046-.3.404 0 .776.11 1.048.3l7.687 5.436c.242.171.363.378.363.587 0 .21-.121.416-.363.586l-7.688 5.437c-.27.191-.642.3-1.047.3v.75c.554 0 1.078-.153 1.48-.438l7.688-5.436c.43-.303.68-.73.68-1.199 0-.468-.25-.895-.68-1.2L11.685.79c-.403-.285-.927-.438-1.48-.438-.552 0-1.077.154-1.479.438L1.038 6.226c-.908.642-.908 1.757 0 2.398l7.688 5.436c.4.284.926.438 1.48.438v-.75z"/><path d="M8.63 8.19h2.473l.064-1.794L8.63 8.19zm3.197.75H6.27l5.7-4.03-.143 4.03zM.44 11.607l8.278 5.948c.42.292.964.444 1.525.442.561-.002 1.105-.156 1.522-.446l8.205-5.872a.375.375 0 0 0-.437-.61l-8.201 5.87c-.28.195-.676.307-1.09.308-.416.001-.81-.108-1.091-.304L.877 10.998a.375.375 0 0 0-.438.61z"/></g></svg>