<?xml version="1.0" encoding="utf-8"?>
<!-- Generator: Adobe Illustrator 21.0.2, SVG Export Plug-In . SVG Version: 6.00 Build 0)  -->
<svg version="1.1" id="Layer_1" xmlns="http://www.w3.org/2000/svg" xmlns:xlink="http://www.w3.org/1999/xlink" x="0px" y="0px"
	 viewBox="0 0 50 50" style="enable-background:new 0 0 50 50;" xml:space="preserve">
<style type="text/css">
	.st0{fill:none;stroke:#000000;}
</style>
<title>89A56901-86BD-428A-9D57-731AD90FE97B</title>
<g>
	<path class="st0" d="M37.3,49l-16,0l-9.5-5.2l-8.6-0.6c-0.8-0.1-1.5-0.8-1.5-1.6v-8.3c0-0.8,0.6-1.5,1.3-1.6c1.3-0.2,2.6-0.5,3.8-1
		c2.5-1,6.3-1.7,9-1.1c2.7,0.6,9,5.1,9.7,5.7c0.7,0.2,6.7,1.5,8.5,1.5c2.5,0,4.1,1,4.1,2.6c0,1.8-1,2.9-2.7,3.1
		C33.9,42.6,24.7,43,24.3,43l-0.1,0l-7.3-4.7l0.4-0.6l7.1,4.6c1.1,0,9.6-0.4,11-0.6c1.3-0.1,2-0.9,2-2.3c0-1.4-1.8-1.9-3.4-1.9
		c-2,0-8.5-1.5-8.7-1.6l-0.1-0.1c-0.1-0.1-6.8-5.1-9.5-5.6c-2.5-0.5-6.1,0.2-8.6,1.1c-1.3,0.5-2.6,0.8-3.9,1
		c-0.4,0.1-0.7,0.4-0.7,0.8v8.3c0,0.4,0.3,0.8,0.8,0.8l8.8,0.7l9.5,5.2h15.3l10.5-14c0,0,0.8-1.3-0.4-2.5c-0.3-0.3-0.6-0.5-1-0.5
		c0,0,0,0,0,0c-0.8,0-1.5,0.7-1.5,0.7L38,38l-0.5-0.5l6.4-6c0,0,0.9-0.9,2.1-0.9c0,0,0,0,0,0c0.6,0,1.1,0.2,1.5,0.7
		c1.3,1.3,0.9,2.8,0.5,3.4L37.3,49z M31.1,30.1c-0.8,0-17.3-7.9-17.3-19.3c0-5.4,4.5-9.8,10-9.8c0,0,0,0,0,0c2.7,0,5.3,1.1,7.2,3
		c1.9-1.9,4.5-3,7.2-3c0,0,0,0,0,0h0c5.5,0,10,4.4,10,9.8C48.4,22.2,31.9,30.1,31.1,30.1z M23.9,1.7C23.9,1.7,23.9,1.7,23.9,1.7
		c-5.1,0-9.3,4.1-9.3,9.1c0,10.6,15.5,18.4,16.5,18.5c0.9-0.2,16.5-7.9,16.5-18.5c0-5-4.2-9.1-9.3-9.1h0c0,0,0,0,0,0
		c-2.6,0-5.1,1.1-6.9,3l-0.3,0.3l-0.3-0.3C29.1,2.9,26.6,1.7,23.9,1.7z"/>
</g>
</svg>
