<?xml version="1.0" encoding="utf-8"?>
<!-- Generator: Adobe Illustrator 21.0.2, SVG Export Plug-In . SVG Version: 6.00 Build 0)  -->
<svg version="1.1" id="Layer_1" xmlns="http://www.w3.org/2000/svg" xmlns:xlink="http://www.w3.org/1999/xlink" x="0px" y="0px"
	 viewBox="0 0 50 50" style="enable-background:new 0 0 50 50;" xml:space="preserve">
<title>8605FE09-6C42-413F-98CE-9DDEFFB186A7</title>
<g>
	<path d="M17.2,41.8c-0.3,0-0.7-0.1-1-0.2c-0.2-0.1-0.5-0.2-0.7-0.4L2.7,30.9c-1.1-0.9-1.3-2.5-0.4-3.6c0.9-1.1,2.5-1.3,3.6-0.4
		l11.1,8.9L43.8,9c1-1,2.6-1,3.7,0c1,1,1,2.6,0,3.7L19.1,41c-0.2,0.2-0.4,0.3-0.6,0.5c-0.3,0.2-0.7,0.3-1.1,0.3
		C17.4,41.8,17.3,41.8,17.2,41.8z"/>
</g>
</svg>
