<?xml version="1.0" encoding="UTF-8"?>
<svg width="100px" height="40px" viewBox="0 0 100 40" version="1.1" xmlns="http://www.w3.org/2000/svg" xmlns:xlink="http://www.w3.org/1999/xlink">
    <!-- Generator: Sketch 43.2 (39069) - http://www.bohemiancoding.com/sketch -->
    <title>clixtv-mobile-beta-logo</title>
    <desc>Created with Sketch.</desc>
    <defs>
        <polygon id="path-1" points="27.2167584 27.786802 0.0626670051 27.786802 0.0626670051 0.0951137056 27.2167584 0.0951137056"></polygon>
    </defs>
    <g id="Symbols" stroke="none" stroke-width="1" fill="none" fill-rule="evenodd">
        <g id="clixtv-mobile-beta-logo">
            <g id="Group-3" transform="translate(0.071066, 3.555848)">
                <mask id="mask-2" fill="white">
                    <use xlink:href="#path-1"></use>
                </mask>
                <g id="Clip-2"></g>
                <path d="M14.113469,21.1975503 C10.0483117,21.1975503 8.74543858,17.4953472 8.74543858,13.941398 C8.74543858,10.3872761 10.0483117,6.6850731 14.113469,6.6850731 C17.7052152,6.6850731 18.4941188,9.60993604 18.6520376,10.5722914 L27.098535,10.5722914 C26.3481188,3.94574315 22.0856924,0.132565482 14.3499157,0.0951137056 C5.66714416,0.0951137056 0.0626670051,5.61122538 0.0626670051,13.941398 C0.0626670051,21.7525959 5.23273807,27.7868193 14.3499157,27.7868193 C22.5991442,27.7868193 27.2167584,22.1224538 27.2167584,16.7922203 L18.6919056,16.7922203 C18.1786264,19.2723218 17.0338447,21.1975503 14.113469,21.1975503" id="Fill-1" fill="#FFFFFF" mask="url(#mask-2)"></path>
            </g>
            <polygon id="Fill-4" fill="#FFFFFF" points="27.7791675 30.6025888 35.802132 30.6025888 35.802132 4.3628731 27.7791675 4.3628731"></polygon>
            <path d="M45.0701005,28.5802619 L45.0701005,12.5543533 L50.846131,20.5698964 L45.0701005,28.5802619 Z M93.8789127,4.36173401 L87.9618772,25.2156426 L82.044669,4.36173401 L58.2548518,4.36173401 L58.2548518,8.00491168 L66.1202426,8.00491168 L66.1202426,29.4647797 L59.599664,20.5698964 L66.1145472,11.5291756 L57.6414711,11.5291756 L55.3227401,15.3143939 L53.0445675,11.5291756 L37.0476538,11.5291756 L37.0476538,30.6026579 L52.2853492,30.6026579 L55.203136,25.9349929 L58.2406995,30.6026579 L71.8902325,30.6026579 L71.8902325,8.00491168 L77.2582629,8.00491168 L84.2722731,30.6026579 L91.4676741,30.6026579 L99.8325371,4.36173401 L93.8789127,4.36173401 Z" id="Fill-6" fill="#FFFFFF"></path>
            <polygon id="Fill-10" fill="#FE0000" points="40.1932751 -3.45177665e-05 40.1932751 11.5288995 45.8131127 5.90906193"></polygon>
            <path d="M66.0537144,40 L63.2997144,40 L63.2997144,33.709 L65.7477144,33.709 C66.1737165,33.709 66.5412128,33.7599995 66.8502144,33.862 C67.1592159,33.9640005 67.3887136,34.1019991 67.5387144,34.276 C67.8267158,34.6000016 67.9707144,34.965998 67.9707144,35.374 C67.9707144,35.8660025 67.8147159,36.2319988 67.5027144,36.472 C67.3887138,36.5560004 67.3107146,36.6084999 67.2687144,36.6295 C67.2267142,36.6505001 67.1517149,36.6849998 67.0437144,36.733 C67.4337163,36.8170004 67.7442132,36.9924987 67.9752144,37.2595 C68.2062155,37.5265013 68.3217144,37.857998 68.3217144,38.254 C68.3217144,38.6920022 68.1717159,39.0789983 67.8717144,39.415 C67.5177126,39.805002 66.9117187,40 66.0537144,40 Z M64.3617144,36.319 L65.7117144,36.319 C66.4797182,36.319 66.8637144,36.0580026 66.8637144,35.536 C66.8637144,35.2359985 66.7707153,35.0200007 66.5847144,34.888 C66.3987135,34.7559993 66.1107163,34.69 65.7207144,34.69 L64.3617144,34.69 L64.3617144,36.319 Z M64.3617144,39.019 L66.0267144,39.019 C66.4167163,39.019 66.7152134,38.9575006 66.9222144,38.8345 C67.1292154,38.7114994 67.2327144,38.4790017 67.2327144,38.137 C67.2327144,37.5789972 66.7857189,37.3 65.8917144,37.3 L64.3617144,37.3 L64.3617144,39.019 Z M76.6441429,33.709 L76.6441429,34.708 L73.2871429,34.708 L73.2871429,36.373 L76.3021429,36.373 L76.3021429,37.318 L73.2871429,37.318 L73.2871429,39.001 L76.7521429,39.001 L76.7521429,40 L72.2251429,40 L72.2251429,33.709 L76.6441429,33.709 Z M83.0585715,34.681 L83.0585715,40 L81.9965715,40 L81.9965715,34.681 L80.0885715,34.681 L80.0885715,33.709 L84.9665715,33.709 L84.9665715,34.681 L83.0585715,34.681 Z M89.086,38.569 L88.456,40 L87.322,40 L90.094,33.709 L91.228,33.709 L94,40 L92.866,40 L92.236,38.569 L89.086,38.569 Z M91.804,37.588 L90.661,34.996 L89.518,37.588 L91.804,37.588 Z" id="BETA" fill="#FFFFFF"></path>
        </g>
    </g>
</svg>