<svg xmlns="http://www.w3.org/2000/svg" xmlns:xlink="http://www.w3.org/1999/xlink" width="300" height="67" viewBox="0 0 300 67">
    <defs>
        <path id="a" d="M57.206 58.404H.132V.2h57.074v58.204z"/>
        <path id="c" d="M0 66.022h299.65V.144H0z"/>
        <radialGradient id="e" cx="19.928%" cy="81.7%" r="124.02%" fx="19.928%" fy="81.7%" gradientTransform="matrix(.66937 -.67855 .61834 .73455 -.44 .352)">
            <stop offset="0%" stop-color="#911685"/>
            <stop offset="100%" stop-color="#FA0D1B"/>
        </radialGradient>
        <path id="f" d="M11.984.144H.172v24.232h11.812V.144z"/>
        <path id="h" d="M6.543 6.559V.262H.007v6.297h6.536z"/>
    </defs>
    <g fill="none" fill-rule="evenodd">
        <g transform="translate(0 .219)">
            <g transform="translate(75.816 7.618)">
                <mask id="b" fill="#fff">
                    <use xlink:href="#a"/>
                </mask>
                <path fill="#000" d="M29.664 44.554c-8.544 0-11.282-7.781-11.282-15.251S21.12 14.05 29.664 14.05c7.55 0 9.208 6.148 9.54 8.17h17.753C55.38 8.293 46.421.28 30.161.2 11.911.2.131 11.794.131 29.303c0 16.418 10.867 29.1 30.03 29.1 17.34 0 27.045-11.905 27.045-23.108H39.288c-1.08 5.213-3.485 9.26-9.624 9.26" mask="url(#b)"/>
            </g>
            <mask id="d" fill="#fff">
                <use xlink:href="#c"/>
            </mask>
            <path fill="#000" d="M134.055 64.466h16.863V9.314h-16.863zM170.398 60.216V26.53l12.14 16.848-12.14 16.837zM272.987 9.312L260.55 53.144 248.113 9.312H198.11v7.657h16.532v45.106l-13.705-18.696 13.693-19.002h-17.81l-4.872 7.956-4.79-7.956h-33.622v40.09h32.027l6.133-9.811 6.384 9.81h28.69V16.97h11.282l14.743 47.497h15.124L285.5 9.312h-12.513z" mask="url(#d)"/>
        </g>
        <path fill="url(#e)" d="M19.806.246C8.913.246 0 9.158 0 20.052v15.54c0 10.892 8.913 19.805 19.806 19.805h20.91c10.894 0 19.806-8.913 19.806-19.806v-15.54C60.522 9.159 51.61.247 40.717.247h-20.91z" transform="translate(0 9.288)"/>
        <path fill="#FFF" d="M27.074 25.118l11.755 12.36-11.755 11.755z"/>
        <path fill="#FFF" d="M30.261 56.58c-10.698 0-19.41-8.743-19.525-19.534h3.457c.115 8.884 7.277 16.077 16.068 16.077 8.792 0 15.954-7.193 16.069-16.077h3.457c-.115 10.79-8.828 19.534-19.526 19.534"/>
        <g transform="translate(159.976 .219)">
            <mask id="g" fill="#fff">
                <use xlink:href="#f"/>
            </mask>
            <path fill="#FE0000" d="M.172.144v24.232l11.812-11.812z" mask="url(#g)"/>
        </g>
        <path fill="#000" d="M287.303 3.383h5.098v.952h-2.002V9.68h-1.103V4.335h-1.993z"/>
        <g transform="translate(293.108 3.12)">
            <mask id="i" fill="#fff">
                <use xlink:href="#h"/>
            </mask>
            <path fill="#000" d="M.007.262H1.56l1.737 4.93h.019L5.008.262h1.535v6.297h-1.05v-4.86h-.018L3.73 6.56h-.908l-1.746-4.86h-.018v4.86H.007z" mask="url(#i)"/>
        </g>
    </g>
</svg>
