<svg xmlns="http://www.w3.org/2000/svg" xmlns:xlink="http://www.w3.org/1999/xlink" width="135" height="40" viewBox="0 0 135 40">
    <defs>
        <path id="a" d="M27.017 27.582H.062V.094h26.955z"/>
        <path id="c" d="M0 31.112h134.834V0H0z"/>
    </defs>
    <g fill="none" fill-rule="evenodd">
        <g>
            <g transform="translate(35.806 3.53)">
                <mask id="b" fill="#fff">
                    <use xlink:href="#a"/>
                </mask>
                <path fill="#FFF" d="M14.01 21.042c-4.036 0-5.329-3.675-5.329-7.203 0-3.528 1.293-7.203 5.329-7.203 3.565 0 4.348 2.903 4.505 3.859h8.384C26.154 3.917 21.923.132 14.244.095 5.625.094.062 5.57.062 13.838c0 7.754 5.132 13.744 14.182 13.744 8.189 0 12.773-5.623 12.773-10.914h-8.463c-.509 2.462-1.645 4.373-4.544 4.373" mask="url(#b)"/>
            </g>
            <mask id="d" fill="#fff">
                <use xlink:href="#c"/>
            </mask>
            <path fill="#FFF" d="M63.31 30.378h7.964V4.33H63.31zM80.474 28.37V12.462l5.734 7.957-5.734 7.951zm48.45-24.04l-5.874 20.7-5.873-20.7H93.562v3.616h7.807v21.302l-6.472-8.83 6.467-8.974h-8.411l-2.302 3.758-2.261-3.758H72.51v18.934h15.126l2.897-4.634 3.015 4.634h13.549V7.946h5.328l6.963 22.432h7.142l8.304-26.048h-5.91zM9.354 4.331h9.875c5.145 0 9.354 4.21 9.354 9.354v7.339c0 5.144-4.21 9.354-9.354 9.354H9.354C4.209 30.378 0 26.168 0 21.024v-7.34C0 8.54 4.21 4.332 9.354 4.332zm3.432 7.36v11.39l5.552-5.553-5.552-5.837zm1.506 14.859c5.052 0 9.166-4.13 9.221-9.226H21.88c-.054 4.196-3.437 7.593-7.588 7.593-4.152 0-7.535-3.397-7.589-7.593H5.07c.055 5.097 4.17 9.226 9.222 9.226z" mask="url(#d)"/>
            <path fill="#FFF" d="M75.633 0v11.444l5.579-5.578z" mask="url(#d)"/>
        </g>
        <path fill="#FFF" d="M101.303 39.706H98.57V33.46H101c.422 0 .787.05 1.094.152.307.101.535.238.683.411.286.322.43.685.43 1.09 0 .488-.156.852-.465 1.09-.113.083-.19.135-.233.156a6.34 6.34 0 0 1-.223.103c.387.083.695.257.925.523.229.265.344.594.344.987 0 .435-.15.819-.447 1.152-.351.387-.953.58-1.805.58zm-1.68-3.654h1.34c.763 0 1.144-.26 1.144-.777 0-.298-.092-.512-.277-.644-.184-.13-.47-.196-.857-.196h-1.35v1.617zm0 2.68h1.654c.387 0 .683-.061.888-.183.206-.122.309-.353.309-.692 0-.554-.444-.831-1.331-.831h-1.52v1.706zm12.193-5.27v.99h-3.332v1.654h2.992v.938h-2.992v1.67h3.44v.992h-4.495V33.46h4.387zm6.367.964v5.28h-1.054v-5.28h-1.894v-.965h4.842v.965h-1.894zm5.983 3.86l-.625 1.42h-1.126l2.752-6.245h1.126l2.751 6.245h-1.126l-.625-1.42h-3.127zm2.698-.974l-1.134-2.573-1.135 2.573h2.27z"/>
    </g>
</svg>
