<?xml version="1.0" encoding="utf-8"?>
<!-- Generator: Adobe Illustrator 21.0.2, SVG Export Plug-In . SVG Version: 6.00 Build 0)  -->
<svg version="1.1" id="Layer_1" xmlns="http://www.w3.org/2000/svg" xmlns:xlink="http://www.w3.org/1999/xlink" x="0px" y="0px"
	 viewBox="0 0 787 181.6" style="enable-background:new 0 0 787 181.6;" xml:space="preserve">
<style type="text/css">
	.st0{fill:#FFFFFF;}
	.st1{fill:#FE0000;}
</style>
<g>
	<g>
		<g>
			<path class="st0" d="M290.8,143.4c-23.6,0-31.1-21.5-31.1-42s7.5-42,31.1-42c20.8,0,25.4,16.9,26.3,22.5H366
				c-4.3-38.4-29-60.5-73.9-60.7c-50.3,0-82.8,32-82.8,80.2c0,45.3,30,80.2,82.8,80.2c47.8,0,74.6-32.8,74.6-63.7h-49.4
				C314.3,132.3,307.7,143.4,290.8,143.4z"/>
			<rect x="369.5" y="25.3" class="st0" width="46.5" height="152"/>
			<path class="st0" d="M752.5,25.3l-34.3,120.8L684,25.3H546.1v21.1h45.6v124.3l-37.8-51.5l37.7-52.4h-49.1l-13.4,21.9l-13.2-21.9
				h-92.7v110.5h88.3l16.9-27l17.6,27h79.1V46.4h31.1l40.6,130.9h41.7l48.5-152H752.5z M469.7,165.6V72.7l33.5,46.4L469.7,165.6z"/>
			<g>
				<path class="st1" d="M112.2,177.3H54.6c-30,0-54.6-24.6-54.6-54.6V79.9c0-30,24.6-54.6,54.6-54.6h57.6c30,0,54.6,24.6,54.6,54.6
					v42.8C166.8,152.7,142.3,177.3,112.2,177.3z"/>
				<g>
					<path class="st0" d="M83.4,145.4c-24.2,0-44-19.8-44.3-44.3h-9.5c0.3,29.7,24.3,53.8,53.8,53.8s53.5-24.1,53.8-53.8h-9.5
						C127.4,125.6,107.7,145.4,83.4,145.4z"/>
					<polygon class="st0" points="74.6,68.2 74.6,134.7 107,102.3 					"/>
				</g>
			</g>
		</g>
		<polygon class="st1" points="441.5,0 441.5,66.8 474,34.2 		"/>
	</g>
</g>
</svg>
