<?xml version="1.0" encoding="utf-8"?>
<!-- Generator: Adobe Illustrator 21.0.2, SVG Export Plug-In . SVG Version: 6.00 Build 0)  -->
<svg version="1.1" id="Layer_1" xmlns="http://www.w3.org/2000/svg" xmlns:xlink="http://www.w3.org/1999/xlink" x="0px" y="0px"
	 viewBox="0 0 577.7 181.6" style="enable-background:new 0 0 577.7 181.6;" xml:space="preserve">
<style type="text/css">
	.st0{fill:#FFFFFF;}
	.st1{fill:#FE0000;}
</style>
<g>
	<g>
		<g>
			<path class="st0" d="M81.5,143.4c-23.6,0-31.1-21.5-31.1-42s7.5-42,31.1-42c20.8,0,25.4,16.9,26.3,22.5h48.9
				c-4.3-38.4-29-60.5-73.9-60.7C32.5,21.2,0,53.2,0,101.4c0,45.3,30,80.2,82.8,80.2c47.8,0,74.6-32.8,74.6-63.7H108
				C105,132.3,98.4,143.4,81.5,143.4z"/>
			<rect x="160.2" y="25.3" class="st0" width="46.5" height="152"/>
			<path class="st0" d="M543.2,25.3l-34.3,120.8L474.7,25.3H336.8v21.1h45.6v124.3l-37.8-51.5l37.7-52.4h-49.1l-13.4,21.9
				l-13.2-21.9h-92.7v110.5h88.3l16.9-27l17.6,27h79.1V46.4h31.1l40.6,130.9h41.7l48.5-152L543.2,25.3L543.2,25.3z M260.4,165.6
				V72.7l33.5,46.4L260.4,165.6z"/>
		</g>
		<polygon class="st1" points="232.2,0 232.2,66.8 264.7,34.2 		"/>
	</g>
</g>
</svg>
