<?xml version="1.0" encoding="utf-8"?>
<!-- Generator: Adobe Illustrator 21.0.2, SVG Export Plug-In . SVG Version: 6.00 Build 0)  -->
<svg version="1.1" id="Layer_1" xmlns="http://www.w3.org/2000/svg" xmlns:xlink="http://www.w3.org/1999/xlink" x="0px" y="0px"
	 viewBox="0 0 15 16" style="enable-background:new 0 0 15 16;" xml:space="preserve">
<style type="text/css">
	.st0{fill:#979797;}
</style>
<title>39877FD7-103E-4F68-B764-D0C9E966870F</title>
<g>
	<path class="st0" d="M12.6,15.5H2.1c-1.3,0-2.3-1-2.3-2.3V3.9c0-1.3,1-2.3,2.3-2.3h10.5c1.3,0,2.3,1,2.3,2.3v9.3
		C14.9,14.5,13.9,15.5,12.6,15.5z M0.8,5.9v7.3c0,0.7,0.6,1.3,1.3,1.3h10.5c0.7,0,1.3-0.6,1.3-1.3V5.9H0.8z M0.8,4.9h13.1v-1
		c0-0.7-0.6-1.3-1.3-1.3H2.1c-0.7,0-1.3,0.6-1.3,1.3V4.9z"/>
	<path class="st0" d="M12.1,2.5c-0.3,0-0.5-0.2-0.5-0.5V0.8c0-0.3,0.2-0.5,0.5-0.5s0.5,0.2,0.5,0.5V2C12.6,2.3,12.4,2.5,12.1,2.5z
		 M2.6,2.5C2.3,2.5,2.1,2.3,2.1,2V0.8c0-0.3,0.2-0.5,0.5-0.5s0.5,0.2,0.5,0.5V2C3.1,2.3,2.9,2.5,2.6,2.5z"/>
	<path class="st0" d="M7.2,8.8L7.2,8.8l-1,0.5L6,8.4l1.4-0.6h1v5.2H7.2V8.8z"/>
</g>
</svg>
