<?xml version="1.0" encoding="utf-8"?>
<!-- Generator: Adobe Illustrator 21.0.2, SVG Export Plug-In . SVG Version: 6.00 Build 0)  -->
<svg version="1.1" id="Layer_1" xmlns="http://www.w3.org/2000/svg" xmlns:xlink="http://www.w3.org/1999/xlink" x="0px" y="0px"
	 viewBox="0 0 50 50" style="enable-background:new 0 0 50 50;" xml:space="preserve">
<style type="text/css">
	.st0{fill:#6C6C6C;}
</style>
<title>9565DAAF-96FB-4122-A422-55F24141FEE3</title>
<g>
	<path class="st0" d="M1,49.1c-0.1,0-0.3-0.1-0.4-0.1c-0.1-0.1-0.2-0.3-0.1-0.5l2.8-14.1c0-0.1,0.1-0.2,0.1-0.3L35,3.4
		c2.4-2.4,5.8-2.9,7.6-1.2l5.7,5.6c0.7,0.7,1,1.6,1,2.7c0,1.6-0.8,3.4-2.2,4.8L43.2,19c0,0,0,0,0,0L15.5,46
		c-0.1,0.1-0.2,0.1-0.2,0.1l-14.2,3C1,49.1,1,49.1,1,49.1z M4.1,35.6L1.6,47.9L14,45.3c-2.1-2.1-3.6-3.5-5-4.9
		C7.6,39.1,6.1,37.7,4.1,35.6z M4.4,34.6c2.2,2.2,3.8,3.7,5.3,5.2c1.5,1.5,3.1,3,5.4,5.2l31.2-30.5c1.2-1.2,1.9-2.7,1.9-4.1
		c0-0.8-0.3-1.5-0.7-2l-5.7-5.6c-1.3-1.3-4.2-0.8-6.2,1.2l-3.9,3.8L4.4,34.6z M41.8,18.3l-10-9.8l0.7-0.7l10,9.8L41.8,18.3z"/>
</g>
</svg>
