<?xml version="1.0" encoding="utf-8"?>
<!-- Generator: Adobe Illustrator 21.0.2, SVG Export Plug-In . SVG Version: 6.00 Build 0)  -->
<svg version="1.1" id="Layer_1" xmlns="http://www.w3.org/2000/svg" xmlns:xlink="http://www.w3.org/1999/xlink" x="0px" y="0px"
	 viewBox="0 0 500 500" style="enable-background:new 0 0 500 500;" xml:space="preserve">
<style type="text/css">
	.st0{fill:#D8D8D8;}
</style>
<path class="st0" d="M42.7,208.5c22.8,0,41.3,18.5,41.3,41.3S65.4,291,42.7,291S1.4,272.6,1.4,249.8S19.9,208.5,42.7,208.5z
	 M249.2,208.5c22.8,0,41.3,18.5,41.3,41.3S272,291,249.2,291s-41.3-18.5-41.3-41.3S226.4,208.5,249.2,208.5z M455.7,208.5
	c22.8,0,41.3,18.5,41.3,41.3S478.5,291,455.7,291s-41.3-18.5-41.3-41.3S433,208.5,455.7,208.5z"/>
</svg>
