<?xml version="1.0" encoding="utf-8"?>
<!-- Generator: Adobe Illustrator 21.0.2, SVG Export Plug-In . SVG Version: 6.00 Build 0)  -->
<svg version="1.1" id="Layer_1" xmlns="http://www.w3.org/2000/svg" xmlns:xlink="http://www.w3.org/1999/xlink" x="0px" y="0px"
	 viewBox="0 0 15 10" style="enable-background:new 0 0 15 10;" xml:space="preserve">
<style type="text/css">
	.st0{fill:#979797;}
</style>
<title>B97A1207-8764-4418-AEEE-61C854D6DD2B</title>
<g>
	<path class="st0" d="M14.9,10.2H0.5C0.2,10.2,0,10,0,9.7V0.3C0,0,0.2-0.2,0.5-0.2h14.4c0.3,0,0.5,0.2,0.5,0.5v9.4
		C15.4,10,15.1,10.2,14.9,10.2z M1,9.2h13.4V0.8H1V9.2z"/>
	<path class="st0" d="M7.5,6.4c-0.6,0-1.1-0.2-1.6-0.6L0,0.7c-0.2-0.2-0.2-0.5,0-0.7c0.2-0.2,0.5-0.2,0.7,0l6,5.2
		c0.5,0.4,1.3,0.4,1.8,0l6-5.2c0.2-0.2,0.5-0.2,0.7,0c0.2,0.2,0.2,0.5,0,0.7l-6,5.2C8.6,6.2,8.1,6.4,7.5,6.4z"/>
</g>
</svg>
