<?xml version="1.0" encoding="utf-8"?>
<!-- Generator: Adobe Illustrator 21.0.2, SVG Export Plug-In . SVG Version: 6.00 Build 0)  -->
<svg version="1.1" id="Layer_1" xmlns="http://www.w3.org/2000/svg" xmlns:xlink="http://www.w3.org/1999/xlink" x="0px" y="0px"
	 viewBox="0 0 24.3 23.5" style="enable-background:new 0 0 24.3 23.5;" xml:space="preserve">
<title>33131E84-155C-4875-8EC0-1FA070B5B5D3</title>
<path d="M12.2,2.6c-0.5,0-0.9,0.3-1.1,0.8L9.4,8.7H3.9c-0.6,0-1.2,0.5-1.2,1.1c0,0.4,0.2,0.7,0.5,0.9l4.5,3.3L6,19.4
	c-0.2,0.6,0.2,1.2,0.8,1.5C6.8,20.9,7,21,7.1,21c0.2,0,0.5-0.1,0.7-0.2l4.4-3.3l4.4,3.2c0.4,0.3,0.9,0.3,1.3,0s0.5-0.8,0.4-1.2
	l-1.6-5.4l4.4-3.3c0.3-0.2,0.5-0.5,0.5-0.9c0-0.6-0.5-1.2-1.2-1.2H15l-1.7-5.3C13.1,3,12.7,2.6,12.2,2.6 M20.4,9.8L20.4,9.8
	 M12.2,3.8l1.9,6.1h6.4l-5.1,3.8l1.9,6.1L12.2,16l-5.1,3.7L9,13.6L3.9,9.8h6.4L12.2,3.8"/>
</svg>
