<?xml version="1.0" encoding="utf-8"?>
<!-- Generator: Adobe Illustrator 21.0.2, SVG Export Plug-In . SVG Version: 6.00 Build 0)  -->
<svg version="1.1" id="Layer_1" xmlns="http://www.w3.org/2000/svg" xmlns:xlink="http://www.w3.org/1999/xlink" x="0px" y="0px"
	 viewBox="0 0 15 18" style="enable-background:new 0 0 15 18;" xml:space="preserve">
<style type="text/css">
	.st0{fill:#979797;}
</style>
<title>A6D12EA0-7B7B-4DA7-B557-A04D9D5080BB</title>
<g>
	<path class="st0" d="M14.7,17.2c-0.3,0-0.5-0.2-0.5-0.5V16c0-1.7-1.5-2.6-3-2.6h-1c-0.2,0-0.3-0.1-0.4-0.2l-1-1.6
		c-0.1-0.2-0.1-0.5,0.2-0.7c0.2-0.1,0.5-0.1,0.7,0.2l0.9,1.4h0.7c2.3,0,4,1.5,4,3.6v0.7C15.2,17,14.9,17.2,14.7,17.2z M0.3,17.2
		c-0.3,0-0.5-0.2-0.5-0.5V16c0-2.1,1.5-3.6,3.7-3.6h0.8l1-1.4c0.2-0.2,0.5-0.3,0.7-0.1c0.2,0.2,0.3,0.5,0.1,0.7L5,13.2
		c-0.1,0.1-0.2,0.2-0.4,0.2h-1c-1.7,0-2.7,1-2.7,2.6v0.7C0.8,17,0.6,17.2,0.3,17.2z"/>
	<path class="st0" d="M7.3,12.4c-2,0-3.6-2.1-3.8-4.1c-0.7-0.2-1-0.7-1-1.1V5.8c0-0.5,0.4-0.8,0.7-1V3.7c0-1.8,1-2.5,3.4-2.5
		c1.8-1.3,3.7-1,4.7,0c0.8,0.7,0.9,1.8,0.4,2.7v0.9c0.3,0.2,0.7,0.5,0.7,1v1.4c0,0.5-0.4,1-1.1,1.1C11.1,10.3,9.4,12.4,7.3,12.4z
		 M9.2,1.3c-0.6,0-1.4,0.2-2.1,0.7C7,2.2,6.9,2.2,6.8,2.2C4.2,2.2,4.2,3,4.2,3.7v1.4c0,0.2-0.1,0.4-0.3,0.5C3.8,5.6,3.6,5.8,3.6,5.8
		l0,1.3c0,0.1,0,0.2,0.4,0.2c0.3,0,0.5,0.2,0.5,0.5c0,1.6,1.3,3.6,2.8,3.6c1.6,0,3-2,3-3.6c0-0.3,0.2-0.5,0.5-0.5
		c0.4,0,0.6-0.1,0.6-0.2l0-1.4c0,0-0.2-0.2-0.4-0.2c-0.2-0.1-0.3-0.3-0.3-0.5V3.7c0-0.1,0-0.2,0.1-0.3c0.4-0.6,0.3-1.1-0.1-1.6
		C10.3,1.5,9.8,1.3,9.2,1.3z"/>
</g>
</svg>
