<?xml version="1.0" encoding="utf-8"?>
<!-- Generator: Adobe Illustrator 21.0.2, SVG Export Plug-In . SVG Version: 6.00 Build 0)  -->
<svg version="1.1" id="Layer_1" xmlns="http://www.w3.org/2000/svg" xmlns:xlink="http://www.w3.org/1999/xlink" x="0px" y="0px"
	 viewBox="0 0 17 14" style="enable-background:new 0 0 17 14;" xml:space="preserve">
<style type="text/css">
	.st0{fill:#979797;}
</style>
<title>E0E25E3C-2503-4741-B281-355FCFA22135</title>
<g>
	<path class="st0" d="M16.8,13.8c-0.3,0-0.5-0.2-0.5-0.5c0-1.2-2.1-2.4-3.6-2.4c-0.2,0-0.4-0.1-0.5-0.3l-0.5-1.5c-0.3,0-0.5,0-0.8,0
		c-0.3,0-0.5-0.2-0.5-0.5s0.2-0.5,0.5-0.5c2.6,0,3.7-1.2,4.1-1.8c-0.3-0.5-1-1.7-1.1-2.2c-0.2-0.9-1-3.1-3-3.1
		c-0.3,0-0.5-0.2-0.5-0.5s0.2-0.5,0.5-0.5c1.9,0,3.4,1.5,4,3.9c0.1,0.4,0.7,1.6,1.1,2.2c0.1,0.1,0.1,0.3,0,0.5
		C15.9,7,15,8.4,12.8,8.9l0.3,1c1.8,0.2,4.2,1.6,4.2,3.4C17.3,13.6,17.1,13.8,16.8,13.8z M6.3,10.3C6.3,10.3,6.3,10.3,6.3,10.3
		c-1.8,0-3.1-1.8-3.3-3.6c-0.6-0.2-0.8-0.6-0.8-1V4.5c0-0.4,0.3-0.7,0.6-0.9V2.8c0-1.5,0.9-2.2,3-2.3c1.6-1.1,3.3-0.8,4.1,0
		c0.7,0.7,0.8,1.6,0.3,2.4v0.7c0.3,0.2,0.6,0.5,0.6,0.9v1.2c0,0.4-0.3,0.9-1,1C9.5,8.5,8.1,10.3,6.3,10.3z M7.9,0.8
		C7.4,0.8,6.8,1,6.2,1.4C6.1,1.5,6,1.5,5.9,1.5c-2.1,0-2.1,0.6-2.1,1.3V4c0,0.2-0.1,0.4-0.3,0.5C3.3,4.5,3.2,4.6,3.1,4.6l0,1.1
		c0,0,0.1,0.1,0.3,0.1c0.3,0,0.5,0.2,0.5,0.5c0,1.4,1,3,2.4,3v0c1.3,0,2.5-1.7,2.5-3C8.8,6,9,5.8,9.3,5.8c0.3,0,0.5-0.1,0.5-0.1
		l0-1.1c0,0-0.2-0.1-0.3-0.1C9.3,4.3,9.2,4.1,9.2,4V2.8c0-0.1,0-0.2,0.1-0.3c0.4-0.6,0.1-1.1-0.1-1.3C8.9,1,8.4,0.8,7.9,0.8z"/>
	<path class="st0" d="M12.6,14.4c-0.3,0-0.5-0.2-0.5-0.5v-0.6c0-1.4-1.3-2.1-2.5-2.1H8.7c-0.2,0-0.3-0.1-0.4-0.2L7.4,9.6
		C7.2,9.3,7.3,9,7.5,8.9S8.1,8.8,8.2,9L9,10.2h0.6c2,0,3.5,1.3,3.5,3.1v0.6C13.1,14.2,12.9,14.4,12.6,14.4z M0.3,14.4
		c-0.3,0-0.5-0.2-0.5-0.5v-0.6c0-1.8,1.3-3.1,3.3-3.1h0.6L4.5,9C4.7,8.8,5,8.7,5.2,8.9c0.2,0.2,0.3,0.5,0.1,0.7l-1,1.4
		c-0.1,0.1-0.2,0.2-0.4,0.2H3.1c-1.4,0-2.3,0.8-2.3,2.1v0.6C0.8,14.2,0.6,14.4,0.3,14.4z"/>
</g>
</svg>
