<?xml version="1.0" encoding="utf-8"?>
<!-- Generator: Adobe Illustrator 21.0.2, SVG Export Plug-In . SVG Version: 6.00 Build 0)  -->
<svg version="1.1" id="Layer_1" xmlns="http://www.w3.org/2000/svg" xmlns:xlink="http://www.w3.org/1999/xlink" x="0px" y="0px"
	 viewBox="0 0 52 48" style="enable-background:new 0 0 52 48;" xml:space="preserve">
<style type="text/css">
	.st0{opacity:0.45;}
	.st1{fill:#FFFFFF;}
</style>
<g class="st0">
	<path class="st1" d="M34.5,47.7H17.3C7.8,47.7,0,40,0,30.4V17.6C0,8.1,7.8,0.3,17.3,0.3h17.2c9.5,0,17.3,7.8,17.3,17.3v12.8
		C51.9,40,44.1,47.7,34.5,47.7z M17.3,2.3C8.9,2.3,2,9.2,2,17.6v12.8c0,8.4,6.9,15.3,15.3,15.3h17.2c8.4,0,15.3-6.9,15.3-15.3V17.6
		c0-8.4-6.9-15.3-15.3-15.3H17.3z"/>
	<path class="st1" d="M23.3,14.1L33,24.3L23.3,34V14.1z"/>
	<path class="st1" d="M25.9,40.1c-8.8,0-16-7.2-16.1-16.1h2.8c0.1,7.3,6,13.2,13.2,13.2S39.1,31.3,39.2,24H42
		C41.9,32.9,34.7,40.1,25.9,40.1"/>
</g>
</svg>
