<?xml version="1.0" encoding="utf-8"?>
<!-- Generator: Adobe Illustrator 21.0.2, SVG Export Plug-In . SVG Version: 6.00 Build 0)  -->
<svg version="1.1" id="Layer_1" xmlns="http://www.w3.org/2000/svg" xmlns:xlink="http://www.w3.org/1999/xlink" x="0px" y="0px"
	 viewBox="0 0 50 50" style="enable-background:new 0 0 50 50;" xml:space="preserve">
<title>9DB7B109-3FC4-493D-A5E7-96CBDF957051</title>
<path d="M45.2,48.8H30.9c-0.2,0-0.4-0.2-0.4-0.4v-14H21v14c0,0.2-0.2,0.4-0.4,0.4H6.3c-0.2,0-0.4-0.2-0.4-0.4V22.2H1.6
	c-0.2,0-0.3-0.1-0.4-0.2c-0.1-0.1,0-0.3,0.1-0.4L25.2,1c0.1-0.1,0.4-0.1,0.5,0l23.2,20.5c0.1,0.1,0.2,0.3,0.1,0.4
	c-0.1,0.1-0.2,0.2-0.4,0.2h-3.1v26.2C45.6,48.6,45.4,48.8,45.2,48.8z M31.2,48h13.6V21.8c0-0.2,0.2-0.4,0.4-0.4h2.5L25.4,1.8
	L2.6,21.4h3.7c0.2,0,0.4,0.2,0.4,0.4V48h13.6v-14c0-0.2,0.2-0.4,0.4-0.4h10.2c0.2,0,0.4,0.2,0.4,0.4V48z"/>
</svg>
