<?xml version="1.0" encoding="utf-8"?>
<!-- Generator: Adobe Illustrator 21.0.2, SVG Export Plug-In . SVG Version: 6.00 Build 0)  -->
<svg version="1.1" id="Layer_1" xmlns="http://www.w3.org/2000/svg" xmlns:xlink="http://www.w3.org/1999/xlink" x="0px" y="0px"
	 viewBox="0 0 50 50" style="enable-background:new 0 0 50 50;" xml:space="preserve">
<style type="text/css">
	.st0{fill:#D8D8D8;}
</style>
<title>1E28D8A4-3847-48D0-90C3-07CAB4B771B8</title>
<path class="st0" d="M40.5,23.4c-0.3,0-0.5-0.2-0.5-0.5v-8.3c0-7.3-6.4-13-14.6-13h-2.1C15.5,1.7,10,7,10,14.6v8.3
	c0,0.3-0.2,0.5-0.5,0.5S9,23.2,9,22.9v-8.3c0-8.1,6.1-14,14.4-14h2.1c8.7,0,15.6,6.1,15.6,14v8.3C41,23.2,40.8,23.4,40.5,23.4z"/>
<path class="st0" d="M7.4,24v15.5c0,5.1,3.6,9.3,8.7,9.3h16.6c5.2,0,9.9-4.2,9.9-9.3V24H7.4z M28.9,33.3
	C28.9,33.3,28.9,33.3,28.9,33.3c0,1-0.7,2-0.7,2.7v3.5c0,1.1-1.5,3.1-2.6,3.1h-2.1c-1.1,0-1.5-2-1.5-3.1V36
	c-2.1-0.7-1.3-1.7-1.3-2.7c0-2.3,1.6-4.1,3.9-4.1C26.9,29.1,28.9,31,28.9,33.3C28.9,33.3,28.9,33.3,28.9,33.3L28.9,33.3z"/>
</svg>
