<?xml version="1.0" encoding="utf-8"?>
<!-- Generator: Adobe Illustrator 21.0.2, SVG Export Plug-In . SVG Version: 6.00 Build 0)  -->
<svg version="1.1" id="Layer_1" xmlns="http://www.w3.org/2000/svg" xmlns:xlink="http://www.w3.org/1999/xlink" x="0px" y="0px"
	 viewBox="0 0 20 20" style="enable-background:new 0 0 20 20;" xml:space="preserve">
<style type="text/css">
	.st0{fill:#989898;}
</style>
<title>C7662470-5286-45D0-90F4-FC6340B20795</title>
<path class="st0" d="M20,8.2v-4c0-2.1-1.7-3.8-3.8-3.8H4.2c-2.1,0-3.8,1.7-3.8,3.8v11.9c0,2.1,1.7,3.8,3.8,3.8h11.9
	c2.1,0,3.8-1.7,3.8-3.8L20,8.2L20,8.2z M17.3,2.7l0.4,0V6l-3.3,0l0-3.3L17.3,2.7z M7.4,8.2c0.6-0.9,1.7-1.4,2.8-1.4
	c1.1,0,2.1,0.5,2.8,1.4c0.4,0.6,0.6,1.3,0.6,2c0,1.9-1.5,3.4-3.4,3.4c-1.9,0-3.4-1.5-3.4-3.4C6.8,9.5,7,8.8,7.4,8.2z M18.1,16.2
	c0,1-0.8,1.9-1.9,1.9H4.2c-1,0-1.9-0.8-1.9-1.9v-8h2.9c-0.3,0.6-0.4,1.3-0.4,2c0,2.9,2.4,5.3,5.3,5.3c2.9,0,5.3-2.4,5.3-5.3
	c0-0.7-0.1-1.4-0.4-2h2.9V16.2z"/>
</svg>
