<?xml version="1.0" encoding="utf-8"?>
<!-- Generator: Adobe Illustrator 21.0.2, SVG Export Plug-In . SVG Version: 6.00 Build 0)  -->
<svg version="1.1" id="Layer_1" xmlns="http://www.w3.org/2000/svg" xmlns:xlink="http://www.w3.org/1999/xlink" x="0px" y="0px"
	 viewBox="0 0 50 50" style="enable-background:new 0 0 50 50;" xml:space="preserve">
<style type="text/css">
	.st0{fill:#979797;}
</style>
<title>9CC9465C-4DD0-41EC-9FC2-E59D8FCDAAB1</title>
<g>
	<path class="st0" d="M25,6.5c-0.9,0-1.7-0.3-2.3-0.9c-0.6-0.6-0.9-1.4-0.9-2.3C21.8,1.5,23.2,0,25,0c1.8,0,3.2,1.5,3.2,3.2
		S26.8,6.5,25,6.5C25,6.5,25,6.5,25,6.5z M25,1.9c-0.7,0-1.3,0.6-1.3,1.3c0,0.4,0.1,0.7,0.4,1c0.3,0.3,0.6,0.4,0.9,0.4c0,0,0,0,0,0
		c0.7,0,1.3-0.6,1.3-1.3S25.7,1.9,25,1.9z"/>
	<path class="st0" d="M19.7,45.4c-5.8,0-13.5-0.4-16.3-3.3c-0.8-0.9-1.2-1.9-1.1-3c0.2-2.4,2.7-4.3,5.1-6.1c1.7-1.3,3.5-2.6,4.1-3.9
		c1-2.1,0.9-4.8,0.9-7.3c0-0.5,0-1,0-1.5c0-7.2,0-15.4,12.6-15.6l0.2,0c12.6,0.2,12.6,8.4,12.6,15.6c0,0.5,0,1,0,1.5
		c0,2.6-0.1,5.2,0.9,7.4c0.6,1.3,2.4,2.6,4.1,3.9c2.4,1.8,4.9,3.7,5.1,6.1c0.1,1.1-0.3,2.2-1.1,3c-3.4,3.6-13.9,3.4-19.6,3.3
		c-0.8,0-1.4,0-1.9,0h-0.2c-0.5,0-1.1,0-1.9,0C22,45.4,20.9,45.4,19.7,45.4z M25.3,43.5c0.4,0,1,0,1.7,0c4.6,0.1,15.4,0.2,18.2-2.7
		c0.4-0.5,0.6-1,0.6-1.6l0,0c-0.1-1.6-2.2-3.2-4.3-4.7c-1.9-1.4-3.9-2.9-4.7-4.7c-1.1-2.5-1.1-5.5-1-8.2c0-0.5,0-1,0-1.5
		c0-8.4-0.5-13.6-10.7-13.7l-0.2,0c-10.2,0.1-10.7,5.3-10.7,13.7c0,0.5,0,1,0,1.5c0,2.6,0.1,5.6-1,8.2c-0.8,1.7-2.8,3.2-4.7,4.7
		c-2.1,1.6-4.2,3.2-4.3,4.7c0,0.6,0.2,1.1,0.6,1.6c2.8,3,13.6,2.8,18.2,2.7c0.8,0,1.4,0,1.9,0l0.2,0C25.2,43.5,25.2,43.5,25.3,43.5z
		"/>
	<path class="st0" d="M25,50c-3,0-5.5-2.2-5.5-5c0-0.2,0-0.4,0-0.6l0.1-0.8l3.1,0c0.9,0,1.7,0,2.3,0h0.2c0.6,0,1.4,0,2.3,0l2.9,0
		l0.1,0.8c0,0.2,0,0.4,0,0.6C30.5,47.8,28,50,25,50z M21.4,45.5c0.3,1.5,1.8,2.7,3.6,2.7s3.3-1.2,3.6-2.7l-1.1,0c-0.9,0-1.7,0-2.3,0
		H25c-0.6,0-1.3,0-2.3,0L21.4,45.5z"/>
</g>
</svg>
