<svg width="23" height="23" viewBox="0 0 23 23" xmlns="http://www.w3.org/2000/svg"><title>609E349D-1DAA-4A98-9DCD-16BD5F7841E8</title><g fill="#979797" fill-rule="evenodd"><path d="M9.587 9.583A1.127 1.127 0 1 1 7.992 7.99a1.127 1.127 0 0 1 1.595 1.594zm1.578-3.938H7.85L5.52 7.973l.064 3.125 7.302 7.303 5.517-5.517-7.239-7.239z"/><path d="M19.604 3.345C16.09-.17 10.84-.914 6.589 1.109c.276.291.446.684.446 1.116v.676a9.65 9.65 0 0 1 4.48-1.098c2.467 0 4.935.939 6.813 2.818 3.758 3.757 3.758 9.87 0 13.628-3.757 3.757-9.87 3.757-13.628 0-3.014-3.014-3.61-7.544-1.788-11.158h-.743a1.62 1.62 0 0 1-1.065-.4c-1.917 4.218-1.144 9.37 2.32 12.833a11.405 11.405 0 0 0 8.09 3.346c2.93 0 5.86-1.115 8.09-3.346 4.46-4.46 4.46-11.718 0-16.18"/><path d="M5.407 1.95H3.788V.33a.275.275 0 0 0-.275-.275H2.169a.275.275 0 0 0-.275.275V1.95H.275A.275.275 0 0 0 0 2.225v1.343c0 .153.123.276.275.276h1.62v1.619c0 .152.122.275.274.275h1.344a.275.275 0 0 0 .275-.275v-1.62h1.62a.275.275 0 0 0 .274-.275V2.225a.275.275 0 0 0-.275-.275"/></g></svg>