<?xml version="1.0" encoding="utf-8"?>
<!-- Generator: Adobe Illustrator 21.0.2, SVG Export Plug-In . SVG Version: 6.00 Build 0)  -->
<svg version="1.1" id="Layer_1" xmlns="http://www.w3.org/2000/svg" xmlns:xlink="http://www.w3.org/1999/xlink" x="0px" y="0px"
	 viewBox="0 0 11 14" style="enable-background:new 0 0 11 14;" xml:space="preserve">
<style type="text/css">
	.st0{fill:#979797;}
</style>
<title>851F03F1-F4E0-4799-AF2F-25D51E02C0B1</title>
<g>
	<path class="st0" d="M7.9,14.5H2.7c-1.8,0-3.2-1.5-3.2-3.5V6c0-0.3,0.2-0.5,0.5-0.5h11c0.3,0,0.5,0.2,0.5,0.5v5
		C11.5,12.9,9.9,14.5,7.9,14.5z M0.5,6.5V11c0,1.4,1,2.5,2.2,2.5h5.2c1.4,0,2.6-1.2,2.6-2.5V6.5H0.5z"/>
	<path class="st0" d="M9.5,5.5h-1V3.1c0-1.6-1.5-2.6-2.9-2.6H5.1c-1.6,0-2.6,1.1-2.6,2.6v2.4h-1V3.1C1.5,1,3-0.5,5.1-0.5h0.5
		c2.2,0,3.9,1.6,3.9,3.6V5.5z"/>
</g>
</svg>
