<svg width="74" height="68" viewBox="0 0 74 68" xmlns="http://www.w3.org/2000/svg" xmlns:xlink="http://www.w3.org/1999/xlink"><title>78A3FE3B-FECF-417C-80EA-1458641C5180</title><defs><path d="M22.775 63.86C10.25 63.86 0 53.5 0 40.839V23.02C0 10.36 10.249 0 22.775 0h24.45C59.75 0 70 10.36 70 23.021V40.84c0 12.66-10.249 23.02-22.775 23.02h-24.45z" id="a"/><mask id="b" x="-1.5" y="-1.5" width="73" height="66.86"><path fill="#fff" d="M-1.5-1.5h73v66.86h-73z"/><use xlink:href="#a"/></mask></defs><g fill="none" fill-rule="evenodd"><g transform="translate(2 2)"><use fill="#FF0005" xlink:href="#a"/><use stroke="#FF0005" mask="url(#b)" stroke-width="3" xlink:href="#a"/></g><path d="M33.864 20.29c-.026-.027-.07-.01-.07.027v27.238c0 .034.043.052.069.028l13.786-13.11c.016-.016-13.785-14.184-13.785-14.184z" fill="#FFF"/><path d="M18.856 34.71h-3.575c.708 12.05 10.387 21.63 22.185 21.63 11.797 0 21.476-9.58 22.185-21.63h-3.576c-.695 10.125-8.776 18.14-18.61 18.14-9.833 0-17.914-8.015-18.609-18.14z" fill="#FFF"/></g></svg>