<?xml version="1.0" encoding="utf-8"?>
<!-- Generator: Adobe Illustrator 21.0.2, SVG Export Plug-In . SVG Version: 6.00 Build 0)  -->
<svg version="1.1" id="Layer_1" xmlns="http://www.w3.org/2000/svg" xmlns:xlink="http://www.w3.org/1999/xlink" x="0px" y="0px"
	 viewBox="0 0 50 50" style="enable-background:new 0 0 50 50;" xml:space="preserve">
<style type="text/css">
	.st0{fill:#8C8C8C;}
</style>
<title>0D25DF23-832B-4C1D-A4A9-8F82CFE73EC5</title>
<g>
	<path class="st0" d="M25,46.3c11.2,0,20.2-9.5,20.2-21.2c0-11.7-9.1-21.2-20.2-21.2c-11.2,0-20.2,9.5-20.2,21.2
		C4.8,36.8,13.8,46.3,25,46.3z M25,49.6c-12.9,0-23.3-11-23.3-24.5C1.7,11.6,12.1,0.6,25,0.6s23.3,11,23.3,24.5
		C48.3,38.6,37.9,49.6,25,49.6z"/>
	<path class="st0" d="M24.2,11v30.7h1.6V11H24.2z"/>
	<path class="st0" d="M39.3,24.3H10.7v1.6h28.5L39.3,24.3z"/>
</g>
</svg>
