<?xml version="1.0" encoding="utf-8"?>
<!-- Generator: Adobe Illustrator 21.0.2, SVG Export Plug-In . SVG Version: 6.00 Build 0)  -->
<svg version="1.1" id="Layer_1" xmlns="http://www.w3.org/2000/svg" xmlns:xlink="http://www.w3.org/1999/xlink" x="0px" y="0px"
	 viewBox="0 0 50 50" style="enable-background:new 0 0 50 50;" xml:space="preserve">
<style type="text/css">
	.st0{fill:#979797;}
</style>
<title>026F239F-6ED5-494D-8315-A9DBBFEA9652</title>
<g>
	<path class="st0" d="M35.7,48.6H13.9c-0.2,0-0.4,0-0.5-0.1c-0.8-0.3-1.2-1.2-0.9-1.9l0.8-2.1c0.2-0.6,0.8-0.9,1.4-0.9h2
		c0.2,0,0.4-0.1,0.5-0.3l0.6-1.4c0.2-0.6,0.8-0.9,1.4-0.9h2.4l1-6.2c-0.4-0.1-1-0.4-2.2-0.9c-4.2-2.3-6.8-7.9-8.9-13
		c-1.5-3.7-2.9-12.3-3.6-17C7.8,2.9,8,2.2,8.5,1.6C9,1,9.8,0.6,10.6,0.6h28.7c0.1,0,0.3,0,0.4,0c1.5,0.2,2.5,1.6,2.3,3.1
		c-0.7,4.8-2,13.4-3.6,17c-2.1,5.1-4.7,10.7-8.9,13c-1.2,0.5-1.8,0.8-2.2,0.9l1,6.2h2.1c0.6,0,1.1,0.3,1.3,0.8l0.8,1.5
		c0.1,0.2,0.3,0.3,0.4,0.3h1.8c0.6,0,1.1,0.3,1.4,0.9l1,2.2c0.1,0.2,0.1,0.4,0.1,0.6C37.2,48,36.6,48.6,35.7,48.6z M14.7,44.6
		c-0.2,0-0.4,0.1-0.5,0.3L13.4,47c-0.1,0.3,0,0.5,0.3,0.6c0.1,0,0.1,0,0.2,0h21.9c0.3,0,0.5-0.2,0.5-0.5c0-0.1,0-0.1,0-0.2l-1-2.2
		c-0.1-0.2-0.3-0.3-0.5-0.3h-1.8c-0.6,0-1.1-0.3-1.3-0.8l-0.8-1.5c-0.1-0.2-0.3-0.3-0.4-0.3H19.1c-0.2,0-0.4,0.1-0.5,0.3L18,43.7
		c-0.2,0.6-0.8,0.9-1.4,0.9H14.7z M22.6,40.9h4.7L26.1,34l0.4-0.1c0,0,0.6-0.2,2.5-1.1c3.9-2.1,6.4-7.5,8.4-12.4
		c1.5-3.7,3-13,3.5-16.8c0.1-0.9-0.5-1.8-1.4-1.9c-0.1,0-0.2,0-0.2,0H10.6c-0.5,0-1,0.2-1.3,0.6C9,2.6,8.8,3.1,8.9,3.6
		c0.5,3.8,2,13.1,3.5,16.8c2,4.9,4.5,10.4,8.4,12.5c1.9,0.8,2.5,1,2.5,1l0.4,0.1L22.6,40.9z"/>
	<path class="st0" d="M37,23.3v-1c7.5,0,10.6-10.7,11.6-15.3c0.1-0.3,0-0.6-0.2-0.8S48,5.8,47.7,5.8H41v-1h6.8
		c0.6,0,1.2,0.3,1.5,0.7c0.4,0.5,0.5,1.1,0.4,1.7C48.6,12,45.2,23.3,37,23.3z M13,23.3C4.7,23.3,1.4,12,0.4,7.2c0-0.1,0-0.3,0-0.4
		c0-0.5,0.2-1,0.6-1.4s0.9-0.6,1.4-0.6H9v1H2.3C2,5.8,1.8,5.9,1.6,6.1C1.4,6.3,1.3,6.5,1.3,6.8c0,0.1,0,0.1,0,0.2
		c1,4.6,4.1,15.3,11.6,15.3V23.3z"/>
</g>
</svg>
