<?xml version="1.0" standalone="no"?>
<!DOCTYPE svg PUBLIC "-//W3C//DTD SVG 20010904//EN"
 "http://www.w3.org/TR/2001/REC-SVG-20010904/DTD/svg10.dtd">
<svg version="1.0" xmlns="http://www.w3.org/2000/svg"
 width="260.000000pt" height="260.000000pt" viewBox="0 0 260.000000 260.000000"
 preserveAspectRatio="xMidYMid meet">
<metadata>
Created by potrace 1.11, written by Peter Selinger 2001-2013
</metadata>
<g transform="translate(0.000000,260.000000) scale(0.100000,-0.100000)"
fill="#000000" stroke="none">
<path d="M730 2483 c-72 -12 -184 -49 -260 -85 -47 -22 -87 -44 -90 -47 -3 -4
-18 -15 -33 -24 -136 -87 -298 -307 -322 -440 -4 -20 -11 -40 -16 -42 -4 -3
-8 -241 -8 -529 0 -490 1 -528 19 -592 54 -187 176 -350 345 -462 39 -26 72
-47 75 -47 3 0 14 -6 26 -12 28 -16 118 -51 146 -58 158 -36 148 -36 717 -32
306 1 567 6 580 10 102 29 137 40 146 47 6 4 20 9 32 12 35 9 177 97 223 139
23 22 46 39 51 39 5 0 9 4 9 8 0 5 14 24 31 43 64 70 155 228 166 288 2 13 6
28 9 33 3 4 8 18 12 30 10 35 12 1047 2 1053 -5 3 -7 12 -3 20 3 9 1 21 -5 28
-6 7 -13 24 -15 37 -15 79 -137 271 -223 350 -52 48 -110 90 -123 90 -6 0 -11
4 -11 8 0 9 -114 67 -175 90 -16 7 -68 21 -115 32 -80 19 -117 20 -625 19
-297 -1 -551 -4 -565 -6z"/>
</g>
</svg>
