<?xml version="1.0" encoding="utf-8"?>
<!-- Generator: Adobe Illustrator 21.0.2, SVG Export Plug-In . SVG Version: 6.00 Build 0)  -->
<svg version="1.1" id="Layer_1" xmlns="http://www.w3.org/2000/svg" xmlns:xlink="http://www.w3.org/1999/xlink" x="0px" y="0px"
	 viewBox="0 0 28 29" style="enable-background:new 0 0 28 29;" xml:space="preserve">
<style type="text/css">
	.st0{fill:#8A8A8A;}
</style>
<title>2EB0B2CB-BC8B-47BC-AECE-66E1078E692D</title>
<g>
	<g>
		<path class="st0" d="M14,27.5c-7.2,0-13-5.8-13-13c0-7.2,5.8-13,13-13c7.2,0,13,5.8,13,13C27,21.7,21.2,27.5,14,27.5z M14,2.5
			c-6.6,0-12,5.4-12,12c0,6.6,5.4,12,12,12c6.6,0,12-5.4,12-12C26,7.9,20.6,2.5,14,2.5z"/>
	</g>
	<polygon class="st0" points="14.5,23.4 13.5,23.4 13.5,15 5.2,15 5.2,14 13.5,14 13.5,5.7 14.5,5.7 14.5,14 22.8,14 22.8,15 
		14.5,15 	"/>
</g>
</svg>
