<?xml version="1.0" encoding="utf-8"?>
<!-- Generator: Adobe Illustrator 21.0.2, SVG Export Plug-In . SVG Version: 6.00 Build 0)  -->
<svg version="1.1" id="Layer_1" xmlns="http://www.w3.org/2000/svg" xmlns:xlink="http://www.w3.org/1999/xlink" x="0px" y="0px"
	 viewBox="0 0 23.5 25.5" style="enable-background:new 0 0 23.5 25.5;" xml:space="preserve">
<style type="text/css">
	.st0{fill:none;stroke:#000000;stroke-width:3;stroke-linecap:round;}
</style>
<title>E1A6F451-6F56-415F-97A4-E10920514246</title>
<path d="M22,25.5c-0.4,0-0.8-0.1-1.1-0.4l-5-5c-0.6-0.6-0.6-1.5,0-2.1s1.5-0.6,2.1,0l5,5c0.6,0.6,0.6,1.5,0,2.1
	C22.8,25.4,22.4,25.5,22,25.5z"/>
<g>
	<circle id="a_1_" class="st0" cx="11" cy="11" r="9.5"/>
</g>
<g>
	<path d="M11,22C4.9,22,0,17.1,0,11S4.9,0,11,0s11,4.9,11,11S17.1,22,11,22z M11,3c-4.4,0-8,3.6-8,8s3.6,8,8,8s8-3.6,8-8
		S15.4,3,11,3z"/>
</g>
</svg>
