<?xml version="1.0" encoding="utf-8"?>
<!-- Generator: Adobe Illustrator 21.0.2, SVG Export Plug-In . SVG Version: 6.00 Build 0)  -->
<svg version="1.1" id="Layer_1" xmlns="http://www.w3.org/2000/svg" xmlns:xlink="http://www.w3.org/1999/xlink" x="0px" y="0px"
	 viewBox="0 0 50 50" style="enable-background:new 0 0 50 50;" xml:space="preserve">
<style type="text/css">
	.st0{fill:#979797;}
</style>
<title>6452E480-F11D-43EF-A3B4-F4A1D3453090</title>
<g>
	<path class="st0" d="M48.1,27.6c0,0.1,0,0.2-0.1,0.3c0,0.1-0.1,0.2-0.2,0.2c-0.1,0.1-0.2,0.1-0.4,0.1L45.7,28
		c-1.3-0.2-2.6,0-3.7,0.6C40.8,29.2,40,30,39.6,31l0,0l0,0c-0.4,1-0.5,2.2-0.1,3.4c0.4,1.2,1.2,2.3,2.2,3.1l1.5,1
		c0.1,0.1,0.2,0.2,0.2,0.3c0,0.1,0,0.2,0,0.3c0,0.1-0.1,0.2-0.2,0.3c-1.1,1.4-2.4,2.7-3.7,3.8c-0.2,0.2-0.4,0.2-0.6,0.2
		c-0.1,0-0.2-0.1-0.3-0.2l-1-1.5c-0.4-0.5-0.9-1-1.4-1.4c-0.5-0.4-1.1-0.6-1.6-0.8c-1.2-0.4-2.4-0.4-3.4,0.1c-1,0.4-1.9,1.2-2.5,2.4
		c-0.3,0.5-0.5,1.1-0.6,1.7c-0.1,0.7-0.1,1.3,0,2l0.3,1.8c0,0.1,0,0.2-0.1,0.3c-0.1,0.2-0.4,0.3-0.6,0.3c-1.7,0.2-3.5,0.2-5.3,0
		c-0.1,0-0.2,0-0.3-0.1c-0.1,0-0.2-0.1-0.2-0.2c-0.1-0.1-0.1-0.2-0.1-0.4l0.3-1.8c0.2-1.3,0-2.6-0.6-3.7c-0.6-1.1-1.4-1.9-2.5-2.4h0
		l0,0c-1-0.4-2.2-0.5-3.4-0.1c-1.2,0.4-2.3,1.2-3.1,2.2l-1,1.5c-0.1,0.1-0.2,0.2-0.4,0.2c-0.1,0-0.2,0-0.3,0c-0.1,0-0.2-0.1-0.3-0.2
		c-1.4-1.1-2.7-2.4-3.8-3.7c-0.2-0.2-0.2-0.4-0.2-0.6c0-0.1,0.1-0.2,0.2-0.3l1.5-1c0.5-0.4,1-0.8,1.4-1.4c0.4-0.5,0.6-1.1,0.8-1.6
		c0.4-1.2,0.4-2.4-0.1-3.4c-0.4-1-1.2-1.9-2.4-2.5c-0.5-0.3-1.1-0.5-1.7-0.6c-0.7-0.1-1.3-0.1-2,0l-1.8,0.3c-0.1,0-0.2,0-0.3-0.1
		c-0.2-0.1-0.3-0.4-0.3-0.6c-0.2-1.8-0.2-3.5,0-5.3c0-0.1,0-0.2,0.1-0.3c0-0.1,0.1-0.2,0.2-0.2c0.1-0.1,0.2-0.1,0.4-0.1L4.2,22
		c1.3,0.2,2.6,0,3.7-0.6c1.1-0.6,1.9-1.4,2.4-2.5v0l0,0c0.4-1,0.5-2.2,0.1-3.4c-0.4-1.2-1.2-2.3-2.2-3.1l-1.5-1
		c-0.1-0.1-0.2-0.2-0.2-0.4c0-0.1,0-0.2,0-0.3c0-0.1,0.1-0.2,0.2-0.3c1.1-1.4,2.4-2.7,3.7-3.8c0.2-0.2,0.4-0.2,0.6-0.2
		c0.1,0,0.2,0.1,0.3,0.2l1,1.5c0.4,0.5,0.8,1,1.4,1.4c0.5,0.4,1.1,0.6,1.6,0.8c1.2,0.4,2.4,0.4,3.4-0.1c1-0.4,1.9-1.2,2.5-2.4
		c0.3-0.5,0.5-1.1,0.6-1.7c0.1-0.7,0.1-1.3,0-2l-0.3-1.8c0-0.1,0-0.2,0.1-0.3c0.1-0.2,0.4-0.3,0.6-0.3c1.8-0.2,3.5-0.2,5.3,0
		c0.1,0,0.3,0.1,0.3,0.1C28,1.9,28.1,2,28.2,2.1c0.1,0.1,0.1,0.2,0.1,0.4L28,4.2c-0.2,1.3,0,2.6,0.6,3.7c0.6,1.1,1.4,1.9,2.5,2.4h0
		l0,0c1,0.4,2.2,0.5,3.4,0.1c1.2-0.4,2.3-1.2,3.1-2.2l1-1.5c0.1-0.1,0.2-0.2,0.3-0.2c0.1,0,0.2,0,0.3,0c0.1,0,0.2,0.1,0.3,0.2
		c1.4,1.1,2.7,2.4,3.8,3.7c0.2,0.2,0.2,0.4,0.2,0.6c0,0.1-0.1,0.2-0.2,0.3l-1.5,1c-0.5,0.4-1,0.9-1.4,1.4c-0.4,0.5-0.6,1.1-0.8,1.6
		c-0.4,1.2-0.4,2.4,0.1,3.4c0.4,1,1.2,1.9,2.4,2.5c0.5,0.3,1.1,0.5,1.7,0.6c0.7,0.1,1.3,0.1,2,0l1.8-0.3c0.1,0,0.2,0,0.3,0.1
		c0.2,0.1,0.3,0.4,0.3,0.6C48.3,24,48.3,25.8,48.1,27.6 M49.8,22.1c-0.1-0.7-0.4-1.3-1-1.7c-0.5-0.3-1-0.5-1.6-0.4l-1.6,0.3l-0.2,0
		c-0.5,0.1-0.9,0.1-1.4,0c-0.4-0.1-0.9-0.2-1.3-0.4c-0.8-0.4-1.3-1-1.6-1.6v0c-0.3-0.7-0.3-1.4,0-2.3c0.1-0.4,0.3-0.8,0.6-1.2
		c0.3-0.4,0.6-0.7,1-1l1.5-1c0.5-0.3,0.8-0.8,0.9-1.4c0.1-0.7-0.1-1.4-0.5-1.9c-1.2-1.5-2.5-2.8-4-4c-0.3-0.2-0.5-0.4-0.9-0.5
		c-0.3-0.1-0.6-0.1-0.9-0.1c-0.6,0.1-1.2,0.4-1.6,0.9l-0.9,1.4l-0.1,0.1c-0.7,1-1.7,1.4-2.2,1.6c-0.8,0.3-1.6,0.3-2.3,0l0,0
		C31,8.5,30.4,8,30,7.2c-0.3-0.5-0.7-1.5-0.4-2.7l0.3-1.8C30,2.1,29.8,1.5,29.4,1c-0.2-0.2-0.5-0.4-0.7-0.6
		c-0.3-0.1-0.6-0.2-0.9-0.3c-1.9-0.2-3.8-0.2-5.7,0c-0.7,0.1-1.3,0.4-1.7,1c-0.3,0.5-0.5,1-0.4,1.6l0.3,1.6l0,0.2
		c0.1,0.4,0.1,0.9,0,1.4c-0.1,0.4-0.2,0.9-0.4,1.3c-0.4,0.8-1,1.3-1.6,1.6h0c-0.7,0.3-1.4,0.3-2.3,0c-0.4-0.1-0.8-0.3-1.2-0.6
		c-0.4-0.3-0.7-0.6-1-1l-1-1.5c-0.3-0.5-0.8-0.8-1.4-0.9C10.7,4.8,10,5,9.4,5.4c-1.5,1.2-2.8,2.5-4,4C5.2,9.7,5.1,10,5,10.3l0,0
		c-0.1,0.3-0.1,0.6-0.1,0.9c0.1,0.6,0.4,1.2,0.9,1.6l1.4,0.9l0.1,0.1c1,0.7,1.4,1.7,1.6,2.2c0.3,0.8,0.3,1.6,0,2.3l0,0
		C8.5,19,8,19.5,7.2,19.9c-0.5,0.3-1.5,0.7-2.7,0.4L2.8,20c-0.6-0.1-1.3,0.1-1.7,0.5c-0.2,0.2-0.4,0.4-0.6,0.7l0,0
		c-0.1,0.3-0.2,0.6-0.3,0.9c-0.2,1.9-0.2,3.8,0,5.7c0.1,0.7,0.4,1.3,1,1.7c0.5,0.4,1.1,0.5,1.6,0.4l1.6-0.3l0.2,0
		c0.5-0.1,0.9-0.1,1.4,0c0.4,0.1,0.9,0.2,1.3,0.4C8,30.5,8.5,31,8.8,31.7v0c0.3,0.7,0.3,1.4,0,2.3c-0.1,0.4-0.3,0.8-0.6,1.2
		c-0.3,0.4-0.6,0.7-1,1l-1.5,1C5.3,37.5,5,38,4.9,38.6C4.8,39.3,5,40,5.4,40.5c1.2,1.5,2.5,2.8,4,4c0.3,0.2,0.5,0.4,0.9,0.5
		c0.3,0.1,0.6,0.1,0.9,0.1c0.6-0.1,1.2-0.4,1.6-0.9l0.9-1.4l0.1-0.1c0.7-1,1.7-1.4,2.2-1.6c0.8-0.3,1.6-0.3,2.3,0l0,0
		c0.7,0.3,1.2,0.8,1.6,1.6c0.3,0.5,0.7,1.5,0.4,2.7L20,47.2c-0.1,0.6,0.1,1.2,0.5,1.7c0.2,0.2,0.4,0.4,0.7,0.6l0,0
		c0.3,0.1,0.6,0.2,0.9,0.3c1,0.1,1.9,0.2,2.9,0.2c1,0,1.9-0.1,2.8-0.2c0.7-0.1,1.3-0.4,1.7-1c0.4-0.5,0.5-1.1,0.4-1.6l-0.3-1.6
		l0-0.2c-0.1-0.5-0.1-0.9,0-1.4c0.1-0.4,0.2-0.9,0.4-1.3c0.4-0.8,0.9-1.3,1.6-1.6h0c0.7-0.3,1.4-0.3,2.3,0c0.4,0.1,0.8,0.3,1.2,0.6
		c0.4,0.3,0.7,0.6,1,1l1,1.5c0.3,0.5,0.8,0.8,1.4,0.9c0.7,0.1,1.4-0.1,1.9-0.5c1.5-1.2,2.8-2.5,4-4c0.2-0.3,0.4-0.5,0.5-0.9
		c0.1-0.3,0.1-0.6,0.1-0.9c-0.1-0.6-0.4-1.2-0.9-1.6l-1.4-0.9l-0.1-0.1c-1-0.7-1.4-1.7-1.6-2.2c-0.3-0.8-0.3-1.6,0-2.3l0,0
		c0.3-0.7,0.8-1.2,1.6-1.6c0.5-0.3,1.5-0.7,2.7-0.4l1.8,0.3c0.6,0.1,1.2-0.1,1.7-0.5c0.2-0.2,0.4-0.4,0.6-0.7l0,0
		c0.1-0.3,0.2-0.6,0.3-0.9C50,25.9,50,24,49.8,22.1"/>
	<path class="st0" d="M25,14.5c-5.8,0-10.4,4.7-10.4,10.4c0,5.8,4.7,10.4,10.4,10.4c5.8,0,10.4-4.7,10.4-10.4
		C35.4,19.2,30.7,14.5,25,14.5 M25,37.5c-6.9,0-12.5-5.6-12.5-12.5S18.1,12.5,25,12.5S37.5,18.1,37.5,25S31.9,37.5,25,37.5"/>
</g>
</svg>
