<?xml version="1.0" encoding="utf-8"?>
<!-- Generator: Adobe Illustrator 21.0.2, SVG Export Plug-In . SVG Version: 6.00 Build 0)  -->
<svg version="1.1" id="Layer_1" xmlns="http://www.w3.org/2000/svg" xmlns:xlink="http://www.w3.org/1999/xlink" x="0px" y="0px"
	 viewBox="0 0 23 24" style="enable-background:new 0 0 23 24;" xml:space="preserve">
<style type="text/css">
	.st0{fill:#979797;}
</style>
<title>C63127D8-3A85-46FB-9614-5C0098E6F005</title>
<path class="st0" d="M17.9,10.7c-2.8,0-5.1-2.3-5.1-5.1s2.3-5.1,5.1-5.1S23,2.8,23,5.6S20.7,10.7,17.9,10.7z M17.9,1.5
	c-2.3,0-4.1,1.8-4.1,4.1c0,2.3,1.8,4.1,4.1,4.1S22,7.8,22,5.6C22,3.3,20.2,1.5,17.9,1.5z"/>
<path class="st0" d="M4.2,19.2C1.9,19.2,0,17.3,0,15s1.9-4.2,4.2-4.2s4.2,1.9,4.2,4.2S6.5,19.2,4.2,19.2z M4.2,11.9
	C2.4,11.9,1,13.3,1,15s1.4,3.2,3.2,3.2s3.2-1.4,3.2-3.2S5.9,11.9,4.2,11.9z"/>
<path class="st0" d="M17,24.1c-2,0-3.6-1.6-3.6-3.6S15,17,17,17s3.6,1.6,3.6,3.6S19,24.1,17,24.1z M17,18c-1.4,0-2.6,1.1-2.6,2.6
	s1.1,2.6,2.6,2.6s2.6-1.1,2.6-2.6S18.4,18,17,18z"/>
<path class="st0" d="M13.9,20.3l-7-3.5l0.4-0.9l7,3.5L13.9,20.3z M7.4,13.6l-0.5-0.8l7.6-4.8l0.5,0.8L7.4,13.6z"/>
</svg>
