<svg width="21" height="20" viewBox="0 0 21 20" xmlns="http://www.w3.org/2000/svg" xmlns:xlink="http://www.w3.org/1999/xlink"><title>0DC2F592-E365-4EE7-89BB-89A63CF1F4D2</title><defs><path id="a" d="M11.315 6.653h6.992l-5.656 4.21 2.16 6.7-5.659-4.089-5.656 4.128 2.16-6.748L0 6.653h6.99L9.152 0z"/><mask id="b" x="-.75" y="-.75" width="19.807" height="19.102"><path fill="#fff" d="M-.75-.75h19.807v19.102H-.75z"/><use xlink:href="#a"/></mask></defs><g transform="translate(1.1 1.227)" fill="none" fill-rule="evenodd"><use stroke="#FFF" mask="url(#b)" stroke-width="1.5" stroke-linecap="round" stroke-linejoin="round" xlink:href="#a"/><path d="M7.717 11.95c-.251 0-.65.106-.948.224a4.456 4.456 0 0 0 2.385.676 4.46 4.46 0 0 0 2.384-.676c-.316-.12-.7-.224-.93-.224h-.391l-.447-.658c.44-.285.76-.83.76-1.316.458-.325.056-1.514.056-1.514.274-.619-.495-1.395-1.695-.757-1.043 0-1.174.339-1.174.757 0 0-.35.72.056 1.514 0 .47.3.995.717 1.286l-.381.688h-.392z" fill="#FFF"/></g></svg>