<?xml version="1.0" encoding="utf-8"?>
<!-- Generator: Adobe Illustrator 21.0.2, SVG Export Plug-In . SVG Version: 6.00 Build 0)  -->
<svg version="1.1" id="logo" xmlns="http://www.w3.org/2000/svg" xmlns:xlink="http://www.w3.org/1999/xlink" x="0px" y="0px"
	 viewBox="0 0 50 50" style="enable-background:new 0 0 50 50;" xml:space="preserve">
<title>tumblr-logo-whiteonblue</title>
<path d="M37.9,46.2c-1.6,1.8-5.4,2.9-8.8,3h-0.4c-11.4,0-13.9-8.4-13.9-13.3V22.3h-4.5c-0.5,0-0.9-0.4-0.9-0.9c0,0,0,0,0,0v-6.4
	c0-0.7,0.4-1.3,1.1-1.5c5.9-2.1,7.7-7.2,8-11.1c0.1-1,0.6-1.5,1.5-1.5h6.7c0.5,0,0.9,0.4,0.9,0.9v10.9h7.9c0.5,0,0.9,0.4,0.9,0.9
	v7.7c0,0.5-0.4,0.9-0.9,0.9h-7.9v12.6c0,3.2,2.1,4,3.4,4c1.2,0,2.5-0.4,3.1-0.7c0.5-0.2,0.9-0.3,1.2-0.2c0.3,0.1,0.5,0.3,0.7,0.7
	l2.1,6.1C38.1,45.3,38.2,45.9,37.9,46.2z"/>
</svg>
