<?xml version="1.0" encoding="utf-8"?>
<!-- Generator: Adobe Illustrator 21.0.2, SVG Export Plug-In . SVG Version: 6.00 Build 0)  -->
<svg version="1.1" id="Layer_1" xmlns="http://www.w3.org/2000/svg" xmlns:xlink="http://www.w3.org/1999/xlink" x="0px" y="0px"
	 viewBox="0 0 787 176" style="enable-background:new 0 0 787 176;" xml:space="preserve">
<style type="text/css">
	.st0{fill:#FFFFFF;}
</style>
<g>
	<g>
		<g>
			<path class="st0" d="M290.8,137.8c-23.6,0-31.1-21.5-31.1-42s7.5-42,31.1-42c20.8,0,25.4,16.9,26.3,22.5H366
				c-4.3-38.4-29-60.5-73.9-60.7c-50.3,0-82.8,32-82.8,80.2c0,45.3,30,80.2,82.8,80.2c47.8,0,74.6-32.8,74.6-63.7h-49.4
				C314.3,126.6,307.7,137.8,290.8,137.8z"/>
			<rect x="369.5" y="19.6" class="st0" width="46.5" height="152"/>
			<path class="st0" d="M752.5,19.6l-34.3,120.8L684,19.6H546.1v21.1h45.6v124.3l-37.8-51.5l37.7-52.4h-49.1l-13.4,21.9l-13.2-21.9
				h-92.7v110.5h88.3l16.9-27l17.6,27h79.1V40.7h31.1l40.6,130.9h41.7l48.5-152H752.5z M469.7,160V67.1l33.5,46.4L469.7,160z"/>
			<path class="st0" d="M112.2,19.6H54.6C24.6,19.6,0,44.2,0,74.2v42.8c0,30,24.6,54.6,54.6,54.6h57.6c30,0,54.6-24.6,54.6-54.6
				V74.2C166.8,44.2,142.3,19.6,112.2,19.6z M74.6,62.6L107,96.7l-32.4,32.4V62.6z M83.4,149.3c-29.5,0-53.5-24.1-53.8-53.8h9.5
				c0.3,24.5,20.1,44.3,44.3,44.3c24.2,0,44-19.8,44.3-44.3h9.5C136.9,125.2,112.9,149.3,83.4,149.3z"/>
		</g>
		<path class="st0" d="M441.5,1.2v61c0,1.1,1.3,1.6,2,0.8l29.7-29.7c0.5-0.5,0.5-1.2,0-1.7L443.5,0.4C442.8-0.4,441.5,0.1,441.5,1.2
			z"/>
	</g>
</g>
</svg>
