<svg xmlns="http://www.w3.org/2000/svg" viewBox="0 0 50 50"><title>F52C3894-EE4F-4143-8CB7-BC66870836A6</title><path d="M2.1 6.2v7.4c0 .7.6 1.4 1.4 1.4h8.2c.8 0 1.4-.6 1.4-1.4V6.2c0-.7-.6-1.4-1.4-1.4H3.4c-.7 0-1.3.6-1.3 1.4zm-1.4 0c0-1.5 1.2-2.7 2.7-2.7h8.2c1.5 0 2.7 1.2 2.7 2.7v7.4c0 1.5-1.2 2.7-2.7 2.7H3.4c-1.5 0-2.7-1.2-2.7-2.7V6.2zm18.9 0v7.4c0 .7.6 1.4 1.4 1.4h8.2c.8 0 1.4-.6 1.4-1.4V6.2c0-.7-.6-1.4-1.4-1.4H21c-.8 0-1.4.6-1.4 1.4zm-1.4 0c0-1.5 1.2-2.7 2.7-2.7h8.2c1.5 0 2.7 1.2 2.7 2.7v7.4c0 1.5-1.2 2.7-2.7 2.7h-8.2c-1.5 0-2.7-1.2-2.7-2.7V6.2zm18.9 0v7.4c0 .7.6 1.4 1.4 1.4h8.2c.8 0 1.4-.6 1.4-1.4V6.2c0-.7-.6-1.4-1.4-1.4h-8.2c-.8 0-1.4.6-1.4 1.4zm-1.4 0c0-1.5 1.2-2.7 2.7-2.7h8.2c1.5 0 2.7 1.2 2.7 2.7v7.4c0 1.5-1.2 2.7-2.7 2.7h-8.2c-1.5 0-2.7-1.2-2.7-2.7V6.2zM2.1 21.1v7.4c0 .7.6 1.4 1.4 1.4h8.2c.8 0 1.4-.6 1.4-1.4v-7.4c0-.7-.6-1.4-1.4-1.4H3.4c-.7.1-1.3.7-1.3 1.4zm-1.4 0c0-1.5 1.2-2.7 2.7-2.7h8.2c1.5 0 2.7 1.2 2.7 2.7v7.4c0 1.5-1.2 2.7-2.7 2.7H3.4C1.9 31.2.7 30 .7 28.5v-7.4zm18.9 0v7.4c0 .7.6 1.4 1.4 1.4h8.2c.8 0 1.4-.6 1.4-1.4v-7.4c0-.7-.6-1.4-1.4-1.4H21c-.8.1-1.4.7-1.4 1.4zm-1.4 0c0-1.5 1.2-2.7 2.7-2.7h8.2c1.5 0 2.7 1.2 2.7 2.7v7.4c0 1.5-1.2 2.7-2.7 2.7h-8.2c-1.5 0-2.7-1.2-2.7-2.7v-7.4zm18.9 0v7.4c0 .7.6 1.4 1.4 1.4h8.2c.8 0 1.4-.6 1.4-1.4v-7.4c0-.7-.6-1.4-1.4-1.4h-8.2c-.8.1-1.4.7-1.4 1.4zm-1.4 0c0-1.5 1.2-2.7 2.7-2.7h8.2c1.5 0 2.7 1.2 2.7 2.7v7.4c0 1.5-1.2 2.7-2.7 2.7h-8.2c-1.5 0-2.7-1.2-2.7-2.7v-7.4zm-33.6 15v7.4c0 .7.6 1.4 1.4 1.4h8.2c.8 0 1.4-.6 1.4-1.4v-7.4c0-.8-.6-1.4-1.4-1.4H3.4c-.7.1-1.3.7-1.3 1.4zm-1.4 0c0-1.5 1.2-2.7 2.7-2.7h8.2c1.5 0 2.7 1.2 2.7 2.7v7.4c0 1.5-1.2 2.7-2.7 2.7H3.4C1.9 46.2.7 45 .7 43.5v-7.4zm18.9 0v7.4c0 .7.6 1.4 1.4 1.4h8.2c.8 0 1.4-.6 1.4-1.4v-7.4c0-.8-.6-1.4-1.4-1.4H21c-.8.1-1.4.7-1.4 1.4zm-1.4 0c0-1.5 1.2-2.7 2.7-2.7h8.2c1.5 0 2.7 1.2 2.7 2.7v7.4c0 1.5-1.2 2.7-2.7 2.7h-8.2c-1.5 0-2.7-1.2-2.7-2.7v-7.4zm18.9 0v7.4c0 .7.6 1.4 1.4 1.4h8.2c.8 0 1.4-.6 1.4-1.4v-7.4c0-.8-.6-1.4-1.4-1.4h-8.2c-.8.1-1.4.7-1.4 1.4zm-1.4 0c0-1.5 1.2-2.7 2.7-2.7h8.2c1.5 0 2.7 1.2 2.7 2.7v7.4c0 1.5-1.2 2.7-2.7 2.7h-8.2c-1.5 0-2.7-1.2-2.7-2.7v-7.4z"/></svg>