<svg width="19" height="20" viewBox="0 0 19 20" xmlns="http://www.w3.org/2000/svg"><title>BC694D9C-1EBA-4BF1-966E-47660A43F4B4</title><g fill="#FFF"><path d="M14.377 15.515c0 .765-.46 1.286-1.22 1.355-.212.02-.814.053-1.716.096l-.328.016a538.085 538.085 0 0 1-2.107.096l-.117.005-2.787-1.768.402-.633 2.587 1.642a589.526 589.526 0 0 0 1.986-.091l.328-.016a64.634 64.634 0 0 0 1.685-.094c.367-.033.537-.225.537-.608 0-.249-.386-.452-1.02-.452-.301 0-.84-.08-1.574-.219l-.373-.072a54.423 54.423 0 0 1-1.34-.287l-.139-.063a29.393 29.393 0 0 0-1.51-1.028c-.157-.1-.31-.195-.459-.284-.643-.384-1.155-.63-1.448-.69-.823-.164-2.071.03-3.05.397a7.95 7.95 0 0 1-1.507.38.07.07 0 0 0-.058.07v3.021a.07.07 0 0 0 .066.07l3.203.23.15.043L8.051 18.5h5.507l3.797-4.994a.458.458 0 0 0 .027-.061.47.47 0 0 0-.057-.472.72.72 0 0 0-.074-.086.351.351 0 0 0-.108-.077c-.094-.04-.22-.012-.364.078a.879.879 0 0 0-.147.114l-2.326 2.125c.046.117.071.247.071.389zm-.071-.39l-.05.047-.506-.554 2.364-2.159c.057-.057.147-.132.266-.206.331-.21.695-.29 1.058-.134.124.054.24.133.343.237.056.056.106.114.15.174.28.386.295.804.153 1.18a1.085 1.085 0 0 1-.114.223l-4.04 5.316H7.956l-.177-.045-3.495-1.874-3.123-.223a.82.82 0 0 1-.762-.819v-3.02a.82.82 0 0 1 .688-.81c.482-.079.96-.192 1.364-.343 1.098-.412 2.478-.627 3.46-.43.404.08.972.354 1.686.781.154.093.313.19.476.294a30.128 30.128 0 0 1 1.489 1.011 50.554 50.554 0 0 0 1.611.337c.684.13 1.198.205 1.434.205.462 0 .877.088 1.189.262.239.134.417.318.51.55z"/><path d="M14.27.852a3.9 3.9 0 0 1 3.9 3.9c0 1.555-1.176 3.27-3.1 5.01-1.327 1.198-3.078 2.413-3.432 2.413-.354 0-2.105-1.215-3.432-2.414-1.924-1.739-3.1-3.454-3.1-5.01a3.9 3.9 0 0 1 6.532-2.876A3.886 3.886 0 0 1 14.27.852zm0 .75a3.14 3.14 0 0 0-2.352 1.056l-.28.315-.28-.315a3.15 3.15 0 0 0-5.501 2.093c0 1.279 1.074 2.847 2.852 4.454 1.156 1.044 2.851 2.22 2.93 2.22.077 0 1.772-1.176 2.928-2.22 1.778-1.607 2.852-3.175 2.852-4.453a3.15 3.15 0 0 0-3.149-3.15z"/></g></svg>