<svg id="Layer_1" xmlns="http://www.w3.org/2000/svg" viewBox="0 0 577.7 181.6"><style>.st0{fill:#fff}.st1{fill:#fe0000}</style><path class="st0" d="M81.5 143.4c-23.6 0-31.1-21.5-31.1-42s7.5-42 31.1-42c20.8 0 25.4 16.9 26.3 22.5h48.9c-4.3-38.4-29-60.5-73.9-60.7-50.3 0-82.8 32-82.8 80.2 0 45.3 30 80.2 82.8 80.2 47.8 0 74.6-32.8 74.6-63.7H108c-3 14.4-9.6 25.5-26.5 25.5zM160.2 25.3h46.5v152h-46.5zM543.2 25.3l-34.3 120.8-34.2-120.8H336.8v21.1h45.6v124.3l-37.8-51.5 37.7-52.4h-49.1l-13.4 21.9-13.2-21.9h-92.7v110.5h88.3l16.9-27 17.6 27h79.1V46.4h31.1l40.6 130.9h41.7l48.5-152h-34.5zM260.4 165.6V72.7l33.5 46.4-33.5 46.5z"/><path class="st1" d="M232.2 0v66.8l32.5-32.6z"/></svg>