<svg id="Layer_1" xmlns="http://www.w3.org/2000/svg" viewBox="0 0 787 176"><style>.st0{fill:#fff}.st1{fill:#fe0000}</style><path class="st0" d="M290.8 137.8c-23.6 0-31.1-21.5-31.1-42s7.5-42 31.1-42c20.8 0 25.4 16.9 26.3 22.5H366c-4.3-38.4-29-60.5-73.9-60.7-50.3 0-82.8 32-82.8 80.2 0 45.3 30 80.2 82.8 80.2 47.8 0 74.6-32.8 74.6-63.7h-49.4c-3 14.3-9.6 25.5-26.5 25.5zM369.5 19.6H416v152h-46.5zM752.5 19.6l-34.3 120.8L684 19.6H546.1v21.1h45.6V165l-37.8-51.5 37.7-52.4h-49.1L529.1 83l-13.2-21.9h-92.7v110.5h88.3l16.9-27 17.6 27h79.1V40.7h31.1l40.6 130.9h41.7l48.5-152h-34.5zM469.7 160V67.1l33.5 46.4-33.5 46.5z"/><path class="st1" d="M112.2 171.7H54.6c-30 0-54.6-24.6-54.6-54.6V74.2c0-30 24.6-54.6 54.6-54.6h57.6c30 0 54.6 24.6 54.6 54.6V117c0 30.1-24.5 54.7-54.6 54.7z"/><path class="st0" d="M83.4 139.8c-24.2 0-44-19.8-44.3-44.3h-9.5c.3 29.7 24.3 53.8 53.8 53.8s53.5-24.1 53.8-53.8h-9.5c-.3 24.5-20 44.3-44.3 44.3z"/><path class="st0" d="M74.6 62.6v66.5L107 96.7z"/><path class="st1" d="M441.5 1.2v61c0 1.1 1.3 1.6 2 .8l29.7-29.7c.5-.5.5-1.2 0-1.7L443.5.4c-.7-.8-2-.3-2 .8z"/></svg>