<svg id="Layer_1" xmlns="http://www.w3.org/2000/svg" viewBox="0 0 15 16"><style>.st0{fill:#979797}</style><title>39877FD7-103E-4F68-B764-D0C9E966870F</title><path class="st0" d="M12.6 15.5H2.1c-1.3 0-2.3-1-2.3-2.3V3.9c0-1.3 1-2.3 2.3-2.3h10.5c1.3 0 2.3 1 2.3 2.3v9.3c0 1.3-1 2.3-2.3 2.3zM.8 5.9v7.3c0 .7.6 1.3 1.3 1.3h10.5c.7 0 1.3-.6 1.3-1.3V5.9H.8zm0-1h13.1v-1c0-.7-.6-1.3-1.3-1.3H2.1c-.7 0-1.3.6-1.3 1.3v1z"/><path class="st0" d="M12.1 2.5c-.3 0-.5-.2-.5-.5V.8c0-.3.2-.5.5-.5s.5.2.5.5V2c0 .3-.2.5-.5.5zm-9.5 0c-.3 0-.5-.2-.5-.5V.8c0-.3.2-.5.5-.5s.5.2.5.5V2c0 .3-.2.5-.5.5zM7.2 8.8l-1 .5-.2-.9 1.4-.6h1V13H7.2V8.8z"/></svg>