<svg id="Layer_1" xmlns="http://www.w3.org/2000/svg" viewBox="0 0 15 18"><style>.st0{fill:#979797}</style><title>A6D12EA0-7B7B-4DA7-B557-A04D9D5080BB</title><path class="st0" d="M14.7 17.2c-.3 0-.5-.2-.5-.5V16c0-1.7-1.5-2.6-3-2.6h-1c-.2 0-.3-.1-.4-.2l-1-1.6c-.1-.2-.1-.5.2-.7.2-.1.5-.1.7.2l.9 1.4h.7c2.3 0 4 1.5 4 3.6v.7c-.1.2-.4.4-.6.4zm-14.4 0c-.3 0-.5-.2-.5-.5V16c0-2.1 1.5-3.6 3.7-3.6h.8l1-1.4c.2-.2.5-.3.7-.1.2.2.3.5.1.7L5 13.2c-.1.1-.2.2-.4.2h-1c-1.7 0-2.7 1-2.7 2.6v.7c-.1.3-.3.5-.6.5z"/><path class="st0" d="M7.3 12.4c-2 0-3.6-2.1-3.8-4.1-.7-.2-1-.7-1-1.1V5.8c0-.5.4-.8.7-1V3.7c0-1.8 1-2.5 3.4-2.5 1.8-1.3 3.7-1 4.7 0 .8.7.9 1.8.4 2.7v.9c.3.2.7.5.7 1v1.4c0 .5-.4 1-1.1 1.1-.2 2-1.9 4.1-4 4.1zM9.2 1.3c-.6 0-1.4.2-2.1.7-.1.2-.2.2-.3.2-2.6 0-2.6.8-2.6 1.5v1.4c0 .2-.1.4-.3.5-.1 0-.3.2-.3.2v1.3c0 .1 0 .2.4.2.3 0 .5.2.5.5 0 1.6 1.3 3.6 2.8 3.6 1.6 0 3-2 3-3.6 0-.3.2-.5.5-.5.4 0 .6-.1.6-.2V5.7s-.2-.2-.4-.2c-.2-.1-.3-.3-.3-.5V3.7c0-.1 0-.2.1-.3.4-.6.3-1.1-.1-1.6-.4-.3-.9-.5-1.5-.5z"/></svg>