<svg id="Layer_1" xmlns="http://www.w3.org/2000/svg" viewBox="0 0 17 14"><style>.st0{fill:#979797}</style><title>E0E25E3C-2503-4741-B281-355FCFA22135</title><path class="st0" d="M16.8 13.8c-.3 0-.5-.2-.5-.5 0-1.2-2.1-2.4-3.6-2.4-.2 0-.4-.1-.5-.3l-.5-1.5h-.8c-.3 0-.5-.2-.5-.5s.2-.5.5-.5c2.6 0 3.7-1.2 4.1-1.8-.3-.5-1-1.7-1.1-2.2-.2-.9-1-3.1-3-3.1-.3 0-.5-.2-.5-.5s.2-.5.5-.5c1.9 0 3.4 1.5 4 3.9.1.4.7 1.6 1.1 2.2.1.1.1.3 0 .5-.1.4-1 1.8-3.2 2.3l.3 1c1.8.2 4.2 1.6 4.2 3.4 0 .3-.2.5-.5.5zM6.3 10.3c-1.8 0-3.1-1.8-3.3-3.6-.6-.2-.8-.6-.8-1V4.5c0-.4.3-.7.6-.9v-.8c0-1.5.9-2.2 3-2.3C7.4-.6 9.1-.3 9.9.5c.7.7.8 1.6.3 2.4v.7c.3.2.6.5.6.9v1.2c0 .4-.3.9-1 1-.3 1.8-1.7 3.6-3.5 3.6zM7.9.8c-.5 0-1.1.2-1.7.6-.1.1-.2.1-.3.1-2.1 0-2.1.6-2.1 1.3V4c0 .2-.1.4-.3.5-.2 0-.3.1-.4.1v1.1s.1.1.3.1c.3 0 .5.2.5.5 0 1.4 1 3 2.4 3 1.3 0 2.5-1.7 2.5-3 0-.3.2-.5.5-.5s.5-.1.5-.1V4.6s-.2-.1-.3-.1c-.2-.2-.3-.4-.3-.5V2.8c0-.1 0-.2.1-.3.4-.6.1-1.1-.1-1.3C8.9 1 8.4.8 7.9.8z"/><path class="st0" d="M12.6 14.4c-.3 0-.5-.2-.5-.5v-.6c0-1.4-1.3-2.1-2.5-2.1h-.9c-.2 0-.3-.1-.4-.2l-.9-1.4c-.2-.3-.1-.6.1-.7s.6-.1.7.1l.8 1.2h.6c2 0 3.5 1.3 3.5 3.1v.6c0 .3-.2.5-.5.5zm-12.3 0c-.3 0-.5-.2-.5-.5v-.6c0-1.8 1.3-3.1 3.3-3.1h.6L4.5 9c.2-.2.5-.3.7-.1.2.2.3.5.1.7l-1 1.4c-.1.1-.2.2-.4.2h-.8c-1.4 0-2.3.8-2.3 2.1v.6c0 .3-.2.5-.5.5z"/></svg>