<svg id="Layer_1" xmlns="http://www.w3.org/2000/svg" viewBox="0 0 52 48"><style>.st0{opacity:.45}.st1{fill:#fff}</style><g class="st0"><path class="st1" d="M34.5 47.7H17.3C7.8 47.7 0 40 0 30.4V17.6C0 8.1 7.8.3 17.3.3h17.2c9.5 0 17.3 7.8 17.3 17.3v12.8c.1 9.6-7.7 17.3-17.3 17.3zM17.3 2.3C8.9 2.3 2 9.2 2 17.6v12.8c0 8.4 6.9 15.3 15.3 15.3h17.2c8.4 0 15.3-6.9 15.3-15.3V17.6c0-8.4-6.9-15.3-15.3-15.3H17.3z"/><path class="st1" d="M23.3 14.1L33 24.3 23.3 34V14.1z"/><path class="st1" d="M25.9 40.1c-8.8 0-16-7.2-16.1-16.1h2.8c.1 7.3 6 13.2 13.2 13.2S39.1 31.3 39.2 24H42c-.1 8.9-7.3 16.1-16.1 16.1"/></g></svg>