<svg width="136" height="32" viewBox="0 0 136 32" xmlns="http://www.w3.org/2000/svg" xmlns:xlink="http://www.w3.org/1999/xlink"><title>3218EACA-8CB8-4F54-A961-9F9E77F06B08</title><defs><path id="a" d="M27.217 27.787H.063V.095h27.154z"/><path id="c" d="M0 31.343h135.833V0H0z"/><linearGradient x1="100%" y1="50%" x2="0%" y2="50%" id="e"><stop stop-color="#FA0D1B" offset="0%"/><stop stop-color="#911685" offset="100%"/></linearGradient></defs><g fill="none" fill-rule="evenodd"><g transform="translate(36.071 3.556)"><mask id="b" fill="#fff"><use xlink:href="#a"/></mask><path d="M14.113 21.198c-4.065 0-5.368-3.703-5.368-7.257s1.303-7.256 5.368-7.256c3.592 0 4.381 2.925 4.539 3.887h8.447C26.349 3.946 22.086.132 14.349.095 5.668.095.064 5.611.064 13.941c0 7.812 5.17 13.846 14.287 13.846 8.25 0 12.867-5.665 12.867-10.995h-8.525c-.513 2.48-1.658 4.406-4.579 4.406" fill="#FFF" mask="url(#b)"/></g><mask id="d" fill="#fff"><use xlink:href="#c"/></mask><path fill="#FFF" mask="url(#d)" d="M63.78 30.603h8.022V4.363H63.78zm17.29-2.023V12.554l5.776 8.016-5.776 8.01zm48.81-24.218l-5.917 20.854-5.917-20.854h-23.79v3.643h7.865v21.46L95.6 20.57l6.515-9.04H93.64l-2.318 3.784-2.278-3.785H73.048v19.074h15.237l2.918-4.668 3.038 4.668h13.65V8.005h5.367l7.014 22.598h7.196l8.365-26.241h-5.954z"/><path d="M19.372 4.363H9.423C4.24 4.363 0 8.603 0 13.786v7.393c0 5.183 4.24 9.424 9.423 9.424h9.949c5.182 0 9.423-4.24 9.423-9.424v-7.393c0-5.183-4.24-9.423-9.423-9.423" fill="url(#e)" mask="url(#d)"/><path fill="#FFF" mask="url(#d)" d="M12.881 11.778l5.593 5.88-5.593 5.593z"/><path d="M14.397 26.747c-5.09 0-9.235-4.16-9.29-9.294h1.646c.054 4.227 3.462 7.649 7.644 7.649 4.183 0 7.59-3.422 7.645-7.65h1.645c-.055 5.135-4.2 9.295-9.29 9.295" fill="#FFF" mask="url(#d)"/><path fill="#FE0000" mask="url(#d)" d="M76.193 0v11.529l5.62-5.62z"/></g></svg>