<svg id="Layer_1" xmlns="http://www.w3.org/2000/svg" viewBox="0 0 166.8 152"><style>.st0{fill:url(#SVGID_1_)}.st1{fill:#fff}</style><radialGradient id="SVGID_1_" cx="11.42" cy="129.018" r="197.536" gradientTransform="matrix(.7345 -.6786 .8749 .947 -109.852 14.59)" gradientUnits="userSpaceOnUse"><stop offset="0" stop-color="#af00b3"/><stop offset=".189" stop-color="#bc0096"/><stop offset=".595" stop-color="#dc004e"/><stop offset="1" stop-color="#fe0000"/></radialGradient><path class="st0" d="M112.2 0H54.6C24.6 0 0 24.6 0 54.6v42.8c0 30 24.6 54.6 54.6 54.6h57.6c30 0 54.6-24.6 54.6-54.6V54.6c0-30-24.5-54.6-54.6-54.6z"/><path class="st1" d="M74.6 43L107 77l-32.4 32.4z"/><path class="st1" d="M83.4 129.7c-29.5 0-53.5-24.1-53.8-53.8h9.5c.3 24.5 20.1 44.3 44.3 44.3 24.2 0 44-19.8 44.3-44.3h9.5c-.3 29.7-24.3 53.8-53.8 53.8z"/></svg>