<svg id="Layer_1" xmlns="http://www.w3.org/2000/svg" viewBox="0 0 50 50"><style>.st0{fill:#d8d8d8}</style><title>1E28D8A4-3847-48D0-90C3-07CAB4B771B8</title><path class="st0" d="M40.5 23.4c-.3 0-.5-.2-.5-.5v-8.3c0-7.3-6.4-13-14.6-13h-2.1C15.5 1.7 10 7 10 14.6v8.3c0 .3-.2.5-.5.5s-.5-.2-.5-.5v-8.3C9 6.5 15.1.6 23.4.6h2.1c8.7 0 15.6 6.1 15.6 14v8.3c-.1.3-.3.5-.6.5zM7.4 24v15.5c0 5.1 3.6 9.3 8.7 9.3h16.6c5.2 0 9.9-4.2 9.9-9.3V24H7.4zm21.5 9.3c0 1-.7 2-.7 2.7v3.5c0 1.1-1.5 3.1-2.6 3.1h-2.1c-1.1 0-1.5-2-1.5-3.1V36c-2.1-.7-1.3-1.7-1.3-2.7 0-2.3 1.6-4.1 3.9-4.1 2.3-.1 4.3 1.8 4.3 4.1z"/></svg>