<svg id="Layer_1" xmlns="http://www.w3.org/2000/svg" viewBox="0 0 50 50"><style>.st0{fill:#ccc}</style><title>D75CD35E-822D-49DF-9E89-CFE2703E12A1</title><path class="st0" d="M24.5 48.9C11.1 48.9.1 38 .1 24.5S11.1.1 24.5.1 48.9 11 48.9 24.5s-11 24.4-24.4 24.4zm0-47.8C11.6 1.1 1.1 11.6 1.1 24.5c0 12.9 10.5 23.4 23.4 23.4 12.9 0 23.4-10.5 23.4-23.4 0-12.9-10.5-23.4-23.4-23.4z" transform="translate(.5 .5)"/><path class="st0" d="M27.6 8.6c.9 0 1.7.3 2.4 1 .6.6 1 1.4 1 2.3 0 .9-.3 1.7-1 2.3-.6.6-1.5 1-2.3 1-.9 0-1.7-.3-2.3-1-.6-.6-1-1.5-1-2.3 0-.9.3-1.7 1-2.3.4-.7 1.3-1 2.2-1zM29 18.9l-4.6 16c-.3.9-.4 1.5-.4 1.8 0 .2.1.3.2.5.1.1.3.2.4.2.3 0 .5-.1.8-.3.7-.6 1.5-1.6 2.4-3l.8.4c-2.3 3.9-4.7 5.9-7.2 5.9-1 0-1.8-.3-2.3-.8-.6-.5-.9-1.3-.9-2.1 0-.6.1-1.3.4-2.1l3.1-10.8c.3-1 .5-1.8.5-2.3 0-.3-.2-.7-.4-.9-.3-.3-.7-.4-1.2-.4h-.8l.3-.9 7.6-1.2H29z" transform="translate(.5 .5)"/></svg>