<svg id="Layer_1" xmlns="http://www.w3.org/2000/svg" viewBox="0 0 50 50"><style>.st0{fill:#979797}</style><title>9CC9465C-4DD0-41EC-9FC2-E59D8FCDAAB1</title><path class="st0" d="M25 6.5c-.9 0-1.7-.3-2.3-.9-.6-.6-.9-1.4-.9-2.3C21.8 1.5 23.2 0 25 0c1.8 0 3.2 1.5 3.2 3.2S26.8 6.5 25 6.5zm0-4.6c-.7 0-1.3.6-1.3 1.3 0 .4.1.7.4 1 .3.3.6.4.9.4.7 0 1.3-.6 1.3-1.3s-.6-1.4-1.3-1.4z"/><path class="st0" d="M19.7 45.4c-5.8 0-13.5-.4-16.3-3.3-.8-.9-1.2-1.9-1.1-3 .2-2.4 2.7-4.3 5.1-6.1 1.7-1.3 3.5-2.6 4.1-3.9 1-2.1.9-4.8.9-7.3v-1.5c0-7.2 0-15.4 12.6-15.6h.2c12.6.2 12.6 8.4 12.6 15.6v1.5c0 2.6-.1 5.2.9 7.4.6 1.3 2.4 2.6 4.1 3.9 2.4 1.8 4.9 3.7 5.1 6.1.1 1.1-.3 2.2-1.1 3-3.4 3.6-13.9 3.4-19.6 3.3h-4c-1.2-.1-2.3-.1-3.5-.1zm5.6-1.9H27c4.6.1 15.4.2 18.2-2.7.4-.5.6-1 .6-1.6-.1-1.6-2.2-3.2-4.3-4.7-1.9-1.4-3.9-2.9-4.7-4.7-1.1-2.5-1.1-5.5-1-8.2v-1.5c0-8.4-.5-13.6-10.7-13.7h-.2c-10.2.1-10.7 5.3-10.7 13.7v1.5c0 2.6.1 5.6-1 8.2-.8 1.7-2.8 3.2-4.7 4.7-2.1 1.6-4.2 3.2-4.3 4.7 0 .6.2 1.1.6 1.6 2.8 3 13.6 2.8 18.2 2.7H25.3z"/><path class="st0" d="M25 50c-3 0-5.5-2.2-5.5-5v-.6l.1-.8h10.8l.1.8v.6c0 2.8-2.5 5-5.5 5zm-3.6-4.5c.3 1.5 1.8 2.7 3.6 2.7s3.3-1.2 3.6-2.7h-7.2z"/></svg>