<svg id="Layer_1" xmlns="http://www.w3.org/2000/svg" viewBox="0 0 23.5 25.5"><style>.st0{fill:none;stroke:#000;stroke-width:3;stroke-linecap:round}</style><title>E1A6F451-6F56-415F-97A4-E10920514246</title><path d="M22 25.5c-.4 0-.8-.1-1.1-.4l-5-5c-.6-.6-.6-1.5 0-2.1s1.5-.6 2.1 0l5 5c.6.6.6 1.5 0 2.1-.2.3-.6.4-1 .4z"/><circle id="a_1_" class="st0" cx="11" cy="11" r="9.5"/><path d="M11 22C4.9 22 0 17.1 0 11S4.9 0 11 0s11 4.9 11 11-4.9 11-11 11zm0-19c-4.4 0-8 3.6-8 8s3.6 8 8 8 8-3.6 8-8-3.6-8-8-8z"/></svg>