<svg id="Layer_1" xmlns="http://www.w3.org/2000/svg" viewBox="0 0 50 50"><style>.st0{fill:#979797}</style><title>6452E480-F11D-43EF-A3B4-F4A1D3453090</title><path class="st0" d="M48.1 27.6c0 .1 0 .2-.1.3 0 .1-.1.2-.2.2-.1.1-.2.1-.4.1l-1.7-.2c-1.3-.2-2.6 0-3.7.6-1.2.6-2 1.4-2.4 2.4-.4 1-.5 2.2-.1 3.4.4 1.2 1.2 2.3 2.2 3.1l1.5 1c.1.1.2.2.2.3v.3c0 .1-.1.2-.2.3-1.1 1.4-2.4 2.7-3.7 3.8-.2.2-.4.2-.6.2-.1 0-.2-.1-.3-.2l-1-1.5c-.4-.5-.9-1-1.4-1.4-.5-.4-1.1-.6-1.6-.8-1.2-.4-2.4-.4-3.4.1-1 .4-1.9 1.2-2.5 2.4-.3.5-.5 1.1-.6 1.7-.1.7-.1 1.3 0 2l.3 1.8c0 .1 0 .2-.1.3-.1.2-.4.3-.6.3-1.7.2-3.5.2-5.3 0-.1 0-.2 0-.3-.1-.1 0-.2-.1-.2-.2-.1-.1-.1-.2-.1-.4l.3-1.8c.2-1.3 0-2.6-.6-3.7S20.1 40 19 39.5c-1-.4-2.2-.5-3.4-.1-1.2.4-2.3 1.2-3.1 2.2l-1 1.5c-.1.1-.2.2-.4.2h-.3c-.1 0-.2-.1-.3-.2-1.4-1.1-2.7-2.4-3.8-3.7-.2-.2-.2-.4-.2-.6 0-.1.1-.2.2-.3l1.5-1c.5-.4 1-.8 1.4-1.4.4-.5.6-1.1.8-1.6.4-1.2.4-2.4-.1-3.4-.4-1-1.2-1.9-2.4-2.5-.5-.3-1.1-.5-1.7-.6-.7-.1-1.3-.1-2 0l-1.8.3c-.1 0-.2 0-.3-.1-.2-.1-.3-.4-.3-.6-.2-1.8-.2-3.5 0-5.3 0-.1 0-.2.1-.3 0-.1.1-.2.2-.2.1-.1.2-.1.4-.1l1.7.3c1.3.2 2.6 0 3.7-.6s1.9-1.4 2.4-2.5c.4-1 .5-2.2.1-3.4-.4-1.2-1.2-2.3-2.2-3.1l-1.5-1c-.1-.1-.2-.2-.2-.4v-.3c0-.1.1-.2.2-.3C7.8 9 9.1 7.7 10.4 6.6c.2-.2.4-.2.6-.2.1 0 .2.1.3.2l1 1.5c.4.5.8 1 1.4 1.4.5.4 1.1.6 1.6.8 1.2.4 2.4.4 3.4-.1 1-.4 1.9-1.2 2.5-2.4.3-.5.5-1.1.6-1.7.1-.7.1-1.3 0-2l-.3-1.8c0-.1 0-.2.1-.3.1-.2.4-.3.6-.3 1.8-.2 3.5-.2 5.3 0 .1 0 .3.1.3.1.2.1.3.2.4.3.1.1.1.2.1.4L28 4.2c-.2 1.3 0 2.6.6 3.7s1.4 1.9 2.5 2.4c1 .4 2.2.5 3.4.1 1.2-.4 2.3-1.2 3.1-2.2l1-1.5c.1-.1.2-.2.3-.2h.3c.1 0 .2.1.3.2 1.4 1.1 2.7 2.4 3.8 3.7.2.2.2.4.2.6 0 .1-.1.2-.2.3l-1.5 1c-.5.4-1 .9-1.4 1.4-.4.5-.6 1.1-.8 1.6-.4 1.2-.4 2.4.1 3.4.4 1 1.2 1.9 2.4 2.5.5.3 1.1.5 1.7.6.7.1 1.3.1 2 0l1.8-.3c.1 0 .2 0 .3.1.2.1.3.4.3.6.1 1.8.1 3.6-.1 5.4m1.7-5.5c-.1-.7-.4-1.3-1-1.7-.5-.3-1-.5-1.6-.4l-1.6.3h-.2c-.5.1-.9.1-1.4 0-.4-.1-.9-.2-1.3-.4-.8-.4-1.3-1-1.6-1.6-.3-.7-.3-1.4 0-2.3.1-.4.3-.8.6-1.2.3-.4.6-.7 1-1l1.5-1c.5-.3.8-.8.9-1.4.1-.7-.1-1.4-.5-1.9-1.2-1.5-2.5-2.8-4-4-.3-.2-.5-.4-.9-.5-.3-.1-.6-.1-.9-.1-.6.1-1.2.4-1.6.9l-.9 1.4-.1.1c-.7 1-1.7 1.4-2.2 1.6-.8.3-1.6.3-2.3 0-.7-.4-1.3-.9-1.7-1.7-.3-.5-.7-1.5-.4-2.7l.3-1.8c.1-.6-.1-1.2-.5-1.7-.2-.2-.5-.4-.7-.6l-.9-.3c-1.9-.2-3.8-.2-5.7 0-.7.1-1.3.4-1.7 1-.3.5-.5 1-.4 1.6l.3 1.6v.2c.1.4.1.9 0 1.4-.1.4-.2.9-.4 1.3-.4.8-1 1.3-1.6 1.6-.7.3-1.4.3-2.3 0-.4-.1-.8-.3-1.2-.6-.4-.3-.7-.6-1-1l-1-1.5c-.3-.5-.8-.8-1.4-.9-.7 0-1.4.2-2 .6-1.5 1.2-2.8 2.5-4 4-.2.3-.3.6-.4.9-.1.3-.1.6-.1.9.1.6.4 1.2.9 1.6l1.4.9.1.1c1 .7 1.4 1.7 1.6 2.2.3.8.3 1.6 0 2.3-.4.7-.9 1.2-1.7 1.6-.5.3-1.5.7-2.7.4L2.8 20c-.6-.1-1.3.1-1.7.5-.2.2-.4.4-.6.7l-.3.9C0 24 0 25.9.2 27.8c.1.7.4 1.3 1 1.7.5.4 1.1.5 1.6.4l1.6-.3h.2c.5-.1.9-.1 1.4 0 .4.1.9.2 1.3.4.7.5 1.2 1 1.5 1.7.3.7.3 1.4 0 2.3-.1.4-.3.8-.6 1.2-.3.4-.6.7-1 1l-1.5 1c-.4.3-.7.8-.8 1.4-.1.7.1 1.4.5 1.9 1.2 1.5 2.5 2.8 4 4 .3.2.5.4.9.5.3.1.6.1.9.1.6-.1 1.2-.4 1.6-.9l.9-1.4.1-.1c.7-1 1.7-1.4 2.2-1.6.8-.3 1.6-.3 2.3 0 .7.3 1.2.8 1.6 1.6.3.5.7 1.5.4 2.7l-.3 1.8c-.1.6.1 1.2.5 1.7.2.2.4.4.7.6l.9.3c1 .1 1.9.2 2.9.2s1.9-.1 2.8-.2c.7-.1 1.3-.4 1.7-1 .4-.5.5-1.1.4-1.6l-.3-1.6v-.2c-.1-.5-.1-.9 0-1.4.1-.4.2-.9.4-1.3.4-.8.9-1.3 1.6-1.6.7-.3 1.4-.3 2.3 0 .4.1.8.3 1.2.6.4.3.7.6 1 1l1 1.5c.3.5.8.8 1.4.9.7.1 1.4-.1 1.9-.5 1.5-1.2 2.8-2.5 4-4 .2-.3.4-.5.5-.9.1-.3.1-.6.1-.9-.1-.6-.4-1.2-.9-1.6l-1.4-.9-.1-.1c-1-.7-1.4-1.7-1.6-2.2-.3-.8-.3-1.6 0-2.3.3-.7.8-1.2 1.6-1.6.5-.3 1.5-.7 2.7-.4l1.8.3c.6.1 1.2-.1 1.7-.5.2-.2.4-.4.6-.7l.3-.9c.3-2 .3-3.9.1-5.8"/><path class="st0" d="M25 14.5c-5.8 0-10.4 4.7-10.4 10.4 0 5.8 4.7 10.4 10.4 10.4 5.8 0 10.4-4.7 10.4-10.4S30.7 14.5 25 14.5m0 23c-6.9 0-12.5-5.6-12.5-12.5S18.1 12.5 25 12.5 37.5 18.1 37.5 25 31.9 37.5 25 37.5"/></svg>