<svg id="Layer_1" xmlns="http://www.w3.org/2000/svg" viewBox="0 0 23 24"><style>.st0{fill:#979797}</style><title>C63127D8-3A85-46FB-9614-5C0098E6F005</title><path class="st0" d="M17.9 10.7c-2.8 0-5.1-2.3-5.1-5.1S15.1.5 17.9.5 23 2.8 23 5.6s-2.3 5.1-5.1 5.1zm0-9.2c-2.3 0-4.1 1.8-4.1 4.1s1.8 4.1 4.1 4.1S22 7.8 22 5.6c0-2.3-1.8-4.1-4.1-4.1zM4.2 19.2C1.9 19.2 0 17.3 0 15s1.9-4.2 4.2-4.2 4.2 1.9 4.2 4.2-1.9 4.2-4.2 4.2zm0-7.3C2.4 11.9 1 13.3 1 15s1.4 3.2 3.2 3.2 3.2-1.4 3.2-3.2-1.5-3.1-3.2-3.1zM17 24.1c-2 0-3.6-1.6-3.6-3.6S15 17 17 17s3.6 1.6 3.6 3.6-1.6 3.5-3.6 3.5zm0-6.1c-1.4 0-2.6 1.1-2.6 2.6s1.1 2.6 2.6 2.6 2.6-1.1 2.6-2.6S18.4 18 17 18z"/><path class="st0" d="M13.9 20.3l-7-3.5.4-.9 7 3.5-.4.9zm-6.5-6.7l-.5-.8L14.5 8l.5.8-7.6 4.8z"/></svg>