<svg width="21" height="20" viewBox="0 0 21 20" xmlns="http://www.w3.org/2000/svg"><title>28369F04-C384-4936-BC18-17C6F1E69E87</title><g fill="#FFF" fill-rule="evenodd"><path d="M12.415 7.88l-2.163-6.653L8.09 7.88H1.1l5.656 4.201-2.16 6.749 5.656-4.129 5.659 4.09-2.16-6.701 5.656-4.21h-6.992zm6.992-.75c.722 0 1.027.92.448 1.352L14.63 12.37l1.995 6.19c.222.689-.566 1.262-1.153.837l-5.218-3.77-5.216 3.807c-.586.428-1.377-.143-1.156-.834l1.996-6.237L.653 8.482C.073 8.052.377 7.13 1.1 7.13h6.445L9.539.995c.225-.69 1.202-.69 1.426 0L12.96 7.13h6.448z" fill-rule="nonzero"/><path d="M8.817 13.177c-.251 0-.65.106-.948.224a4.456 4.456 0 0 0 2.385.676 4.46 4.46 0 0 0 2.384-.676c-.316-.12-.7-.224-.93-.224h-.391l-.447-.658c.44-.285.76-.829.76-1.316.458-.324.056-1.513.056-1.513.274-.62-.495-1.395-1.695-.758-1.043 0-1.174.339-1.174.758 0 0-.35.72.056 1.513 0 .47.3.995.717 1.287l-.381.687h-.392z"/></g></svg>