<svg width="25" height="26" viewBox="0 0 25 26" xmlns="http://www.w3.org/2000/svg"><title>7CDFAA77-6280-4FDB-AF4D-370DB284BF2A</title><g fill="#8C8C8C" fill-rule="evenodd"><path d="M16.476 8.532l8.492 1.266-6.2 6.027 1.438 8.63-7.708-4.053-7.704 4.106 1.443-8.683L.032 9.798l8.577-1.266 3.89-8 3.977 8zM12.5 18.211a4.188 4.188 0 1 0 0-8.376 4.188 4.188 0 0 0 0 8.376z"/><path d="M14.307 14.653c-.2-.2-.708-.29-.882-.32-.175-.027-.406-.183-.406-.183l.008-.354a1.6 1.6 0 0 0 .284-.62c.056-.029.15-.213.157-.32.008-.116-.035-.206-.115-.214-.02-.674-.19-1.2-.87-1.208h-.001c-.68.009-.85.534-.869 1.208-.08.008-.124.098-.116.214.008.107.101.291.158.32.055.243.157.456.284.62l.008.354s-.232.156-.406.184c-.175.028-.682.118-.883.32-.2.2-.204.472-.204.472v.641s.735.365 2.005.365h.047c1.27 0 2.006-.365 2.006-.365v-.641s-.004-.272-.205-.473"/></g></svg>