<svg id="Layer_1" xmlns="http://www.w3.org/2000/svg" viewBox="0 0 50 50"><style>.st0{fill:#828282}</style><title>4592C6A5-E198-4282-8A26-EEE79FF9696C</title><path class="st0" d="M46.4 50H3.6c-.9 0-1.8-.4-2.5-1.1-.5-.5-.7-1.2-.7-2.1.2-3.7 1.1-10.2 3.3-13.2 2.6-3.3 6.3-3.9 9.8-4.4.9-.2 1.8-.4 2.6-.5.7-.2 1.4-.9 1.8-2.3 0-.4-.2-.5-.2-.7-2.8-3-4.4-7.4-4.4-11.8 0-7.7 5.1-14 11.6-14s11.6 6.3 11.6 14c0 4.4-1.6 8.8-4.2 11.9-.2.2-.2.4-.2.5.4 1.4.9 2.3 1.8 2.5s1.8.4 2.6.5c3.3.5 7.2 1.1 9.8 4.4 2.3 3 3.2 9.5 3.3 13.2 0 .9-.2 1.6-.7 2.1-.8.6-1.7 1-2.5 1zM25 2.3c-5.1 0-9.3 5.3-9.3 11.9 0 3.7 1.4 7.7 3.7 10.5.7.7.9 1.8.5 2.6-.7 2.8-2.3 3.7-3.3 3.9-.9.2-1.8.4-2.8.5-3.2.5-6.3.9-8.4 3.5-1.5 1.8-2.5 6.2-2.9 12 0 .2.2.4.2.5.2.2.5.4.7.4h42.8c.4 0 .5-.2.7-.4s.2-.4.2-.5c-.4-5.8-1.4-10.2-2.8-11.9-2.1-2.6-5.3-3.2-8.4-3.5-.9-.2-1.9-.4-2.8-.5-1.6-.4-2.8-1.8-3.3-4-.2-.9 0-1.9.5-2.6C32.6 22.1 34 18 34 14.2c.3-6.7-4-11.9-9-11.9z"/></svg>