<svg xmlns="http://www.w3.org/2000/svg" xmlns:xlink="http://www.w3.org/1999/xlink" width="159" height="38" viewBox="0 0 159 38"><defs><path id="a" d="M31.729 32.393H.073V.111H31.73z"/><path id="c" d="M0 36.539h158.35V0H0z"/></defs><g fill="none" fill-rule="evenodd" opacity=".197" transform="translate(.454 .611)"><g transform="translate(42.05 4.145)"><mask id="b" fill="#fff"><use xlink:href="#a"/></mask><path fill="#FFF" d="M16.453 24.712c-4.739 0-6.258-4.316-6.258-8.46 0-4.143 1.52-8.459 6.258-8.459 4.187 0 5.107 3.41 5.291 4.532h9.847C30.716 4.6 25.747.155 16.729.111 6.607.11.073 6.54.073 16.253c0 9.106 6.027 16.14 16.656 16.14 9.617 0 15-6.603 15-12.817H21.79c-.599 2.891-1.933 5.136-5.338 5.136" mask="url(#b)"/></g><mask id="d" fill="#fff"><use xlink:href="#c"/></mask><path fill="#FFF" d="M74.352 35.676h9.353V5.086h-9.353zm20.158-2.358V14.636l6.733 9.344-6.733 9.338zm56.9-28.233l-6.898 24.31-6.898-24.31H109.88v4.247h9.17v25.017l-7.602-10.37 7.595-10.539h-9.878l-2.703 4.413-2.656-4.413H85.157v22.236h17.764l3.402-5.442 3.54 5.442h15.913V9.332h6.258l8.177 26.344h8.388l9.752-30.591h-6.94zm-140.425.001h11.598c6.042 0 10.985 4.944 10.985 10.986v8.619c0 6.041-4.943 10.985-10.985 10.985H10.985C4.943 35.676 0 30.732 0 24.69v-8.62C0 10.03 4.943 5.087 10.985 5.087zm4.031 8.644v13.376l6.52-6.52-6.52-6.856zm1.768 17.45c5.934 0 10.766-4.849 10.83-10.834h-1.917c-.064 4.928-4.037 8.917-8.913 8.917s-8.848-3.99-8.912-8.917H5.955c.063 5.985 4.896 10.835 10.83 10.835z" mask="url(#d)"/><path fill="#FFF" d="M88.824 0v13.44l6.552-6.551z" mask="url(#d)"/></g></svg>