<svg xmlns="http://www.w3.org/2000/svg" xmlns:xlink="http://www.w3.org/1999/xlink" width="136" height="40" viewBox="0 0 136 40"><defs><path id="a" d="M27.217 27.787H.063V.095h27.154z"/><path id="c" d="M0 31.343h135.833V0H0z"/><radialGradient id="e" cx="19.928%" cy="81.7%" r="124.02%" fx="19.928%" fy="81.7%" gradientTransform="matrix(.66937 -.67855 .61834 .73455 -.44 .352)"><stop offset="0%" stop-color="#911685"/><stop offset="100%" stop-color="#FA0D1B"/></radialGradient></defs><g fill="none" fill-rule="evenodd"><g transform="translate(36.071 3.556)"><mask id="b" fill="#fff"><use xlink:href="#a"/></mask><path fill="#FFF" d="M14.113 21.198c-4.065 0-5.368-3.703-5.368-7.257s1.303-7.256 5.368-7.256c3.592 0 4.381 2.925 4.539 3.887h8.447C26.349 3.946 22.086.132 14.349.095 5.668.095.064 5.611.064 13.941c0 7.812 5.17 13.846 14.287 13.846 8.25 0 12.867-5.665 12.867-10.995h-8.525c-.513 2.48-1.658 4.406-4.579 4.406" mask="url(#b)"/></g><mask id="d" fill="#fff"><use xlink:href="#c"/></mask><path fill="#FFF" d="M63.78 30.603h8.022V4.363H63.78zm17.29-2.023V12.554l5.776 8.016-5.776 8.01zm48.81-24.218l-5.917 20.854-5.917-20.854h-23.79v3.643h7.865v21.46L95.6 20.57l6.515-9.04H93.64l-2.318 3.784-2.278-3.785H73.048v19.074h15.237l2.918-4.668 3.038 4.668h13.65V8.005h5.367l7.014 22.598h7.196l8.365-26.241h-5.954z" mask="url(#d)"/><path fill="url(#e)" d="M9.423 4.363C4.24 4.363 0 8.603 0 13.786v7.393c0 5.183 4.24 9.424 9.423 9.424h9.949c5.182 0 9.423-4.24 9.423-9.424v-7.393c0-5.183-4.24-9.423-9.423-9.423H9.423z" mask="url(#d)"/><path fill="#FFF" d="M12.881 11.778l5.593 5.88-5.593 5.593z" mask="url(#d)"/><path fill="#FFF" d="M14.397 26.747c-5.09 0-9.235-4.16-9.29-9.294h1.646c.054 4.227 3.462 7.649 7.644 7.649 4.183 0 7.59-3.422 7.645-7.65h1.645c-.055 5.135-4.2 9.295-9.29 9.295" mask="url(#d)"/><path fill="#FE0000" d="M76.193 0v11.529l5.62-5.62z" mask="url(#d)"/><path fill="#FFF" d="M102.054 40H99.3v-6.291h2.448c.426 0 .793.051 1.102.153.31.102.539.24.689.414.288.324.432.69.432 1.098 0 .492-.156.858-.468 1.098a2.061 2.061 0 0 1-.234.157 6.386 6.386 0 0 1-.225.104c.39.084.7.26.931.527.231.267.347.598.347.994 0 .438-.15.825-.45 1.161-.354.39-.96.585-1.818.585zm-1.692-3.681h1.35c.768 0 1.152-.261 1.152-.783 0-.3-.093-.516-.28-.648-.185-.132-.473-.198-.863-.198h-1.36v1.629zm0 2.7h1.665c.39 0 .688-.061.895-.184.207-.124.31-.356.31-.698 0-.558-.446-.837-1.34-.837h-1.53v1.719zm12.282-5.31v.999h-3.357v1.665h3.015v.945h-3.015v1.683h3.465V40h-4.527v-6.291h4.42zm6.415.972V40h-1.062v-5.319h-1.908v-.972h4.878v.972h-1.908zm6.027 3.888l-.63 1.431h-1.134l2.772-6.291h1.134L130 40h-1.134l-.63-1.431h-3.15zm2.718-.981l-1.143-2.592-1.143 2.592h2.286z"/></g></svg>