<svg id="Layer_1" xmlns="http://www.w3.org/2000/svg" viewBox="0 0 787 181.6"><style>.st0{fill:#fff}.st1{fill:#fe0000}</style><path class="st0" d="M290.8 143.4c-23.6 0-31.1-21.5-31.1-42s7.5-42 31.1-42c20.8 0 25.4 16.9 26.3 22.5H366c-4.3-38.4-29-60.5-73.9-60.7-50.3 0-82.8 32-82.8 80.2 0 45.3 30 80.2 82.8 80.2 47.8 0 74.6-32.8 74.6-63.7h-49.4c-3 14.4-9.6 25.5-26.5 25.5zM369.5 25.3H416v152h-46.5zM752.5 25.3l-34.3 120.8L684 25.3H546.1v21.1h45.6v124.3l-37.8-51.5 37.7-52.4h-49.1l-13.4 21.9-13.2-21.9h-92.7v110.5h88.3l16.9-27 17.6 27h79.1V46.4h31.1l40.6 130.9h41.7l48.5-152h-34.5zM469.7 165.6V72.7l33.5 46.4-33.5 46.5z"/><path class="st1" d="M112.2 177.3H54.6c-30 0-54.6-24.6-54.6-54.6V79.9c0-30 24.6-54.6 54.6-54.6h57.6c30 0 54.6 24.6 54.6 54.6v42.8c0 30-24.5 54.6-54.6 54.6z"/><path class="st0" d="M83.4 145.4c-24.2 0-44-19.8-44.3-44.3h-9.5c.3 29.7 24.3 53.8 53.8 53.8s53.5-24.1 53.8-53.8h-9.5c-.3 24.5-20 44.3-44.3 44.3z"/><path class="st0" d="M74.6 68.2v66.5l32.4-32.4z"/><path class="st1" d="M441.5 0v66.8L474 34.2z"/></svg>