<svg id="Layer_1" xmlns="http://www.w3.org/2000/svg" viewBox="0 0 50 50"><style>.st0{fill:#6c6c6c}</style><title>9565DAAF-96FB-4122-A422-55F24141FEE3</title><path class="st0" d="M1 49.1c-.1 0-.3-.1-.4-.1-.1-.1-.2-.3-.1-.5l2.8-14.1c0-.1.1-.2.1-.3L35 3.4C37.4 1 40.8.5 42.6 2.2l5.7 5.6c.7.7 1 1.6 1 2.7 0 1.6-.8 3.4-2.2 4.8L43.2 19 15.5 46c-.1.1-.2.1-.2.1l-14.2 3H1zm3.1-13.5L1.6 47.9 14 45.3c-2.1-2.1-3.6-3.5-5-4.9-1.4-1.3-2.9-2.7-4.9-4.8zm.3-1c2.2 2.2 3.8 3.7 5.3 5.2s3.1 3 5.4 5.2l31.2-30.5c1.2-1.2 1.9-2.7 1.9-4.1 0-.8-.3-1.5-.7-2l-5.7-5.6C40.5 1.5 37.6 2 35.6 4l-3.9 3.8L4.4 34.6zm37.4-16.3l-10-9.8.7-.7 10 9.8-.7.7z"/></svg>