<svg width="50" height="46" viewBox="0 0 50 46" xmlns="http://www.w3.org/2000/svg"><title>50D61BB3-CF94-4F37-8EF5-D2DAEC8D3750</title><defs><linearGradient x1="100%" y1="50%" x2="0%" y2="50%" id="a"><stop stop-color="#FF0005" offset="0%"/><stop stop-color="#9B0086" offset="100%"/></linearGradient></defs><g fill="none" fill-rule="evenodd"><path d="M33.605.3H16.347C7.357.3 0 7.654 0 16.645v12.826c0 8.99 7.356 16.347 16.347 16.347h17.258c8.991 0 16.347-7.356 16.347-16.347V16.646C49.952 7.656 42.596.3 33.605.3" fill="url(#a)"/><path fill="#FFF" d="M22.346 13.162l9.702 10.202-9.702 9.702z"/><path d="M24.976 39.13c-8.83 0-16.02-7.217-16.115-16.123h2.853c.095 7.332 6.006 13.269 13.262 13.269s13.167-5.937 13.262-13.27h2.854c-.096 8.907-7.286 16.124-16.116 16.124" fill="#FFF"/></g></svg>