<svg width="37" height="32" viewBox="0 0 37 32" xmlns="http://www.w3.org/2000/svg"><title>408C163D-58B9-433D-9E61-BA32D099899C</title><path d="M9.448 2.292c-1.667 0-3.223.751-4.742 2.287-1.68 1.698-2.5 3.59-2.435 5.624.143 4.528 4.464 8.421 4.508 8.46l.065.063c3.57 3.72 9.607 9.568 11.656 10.477 2.29-1.015 9.185-7.902 11.656-10.477l.065-.063c.043-.038 4.371-3.958 4.508-8.47.062-2.029-.757-3.918-2.435-5.614-1.668-1.686-3.38-2.428-5.236-2.265-4.168.362-7.595 5.215-7.63 5.264l-.338.486-1.181.001-.339-.488c-.033-.048-3.46-4.9-7.628-5.263a5.613 5.613 0 0 0-.494-.022zm9.073 29.422l-.902-.4C14.56 29.99 6.319 21.47 5.245 20.352 4.75 19.9.173 15.6.005 10.276-.08 7.585.962 5.123 3.103 2.959 5.246.793 7.616-.191 10.146.03c3.792.335 6.881 3.341 8.354 5.055C19.972 3.371 23.062.365 26.853.03c2.53-.224 4.901.762 7.044 2.928 2.14 2.164 3.183 4.626 3.098 7.317-.168 5.325-4.746 9.626-5.24 10.075-1.072 1.116-9.29 9.612-12.367 10.961l-.867.402z" fill="#979797" fill-rule="evenodd"/></svg>