<svg id="Layer_1" xmlns="http://www.w3.org/2000/svg" viewBox="0 0 19 19"><style>.st0{fill:none;stroke:#000;stroke-width:.75;stroke-miterlimit:10}</style><title>BF095CF6-7F4F-4178-A052-A91A6BF13395</title><path class="st0" d="M.5 8.6c-.2 0-.4-.2-.4-.4 0-.1 0-.2.1-.3L9 .5c.1-.1.4-.1.5 0L18 8c.2.1.2.4 0 .5-.1.1-.2.1-.3.1h-.9V18c0 .2-.2.4-.4.4h-5.2c-.2 0-.4-.2-.4-.4v-4.9h-3V18c0 .2-.2.4-.4.4H2.2c-.2 0-.4-.2-.4-.4V8.6H.5zm1-.7h.7c.2 0 .4.2.4.4v9.4h4.5v-4.9c0-.2.2-.4.4-.4h3.8c.2 0 .4.2.4.4v4.9h4.5V8.2c0-.2.2-.4.4-.4h.3L9.2 1.2 1.5 7.9z"/></svg>