<svg id="Layer_1" xmlns="http://www.w3.org/2000/svg" viewBox="0 0 20 20"><style>.st0{fill:#989898}</style><title>C7662470-5286-45D0-90F4-FC6340B20795</title><path class="st0" d="M20 8.2v-4C20 2.1 18.3.4 16.2.4h-12C2.1.4.4 2.1.4 4.2v11.9c0 2.1 1.7 3.8 3.8 3.8h11.9c2.1 0 3.8-1.7 3.8-3.8l.1-7.9zm-2.7-5.5h.4V6h-3.3V2.7h2.9zM7.4 8.2c.6-.9 1.7-1.4 2.8-1.4 1.1 0 2.1.5 2.8 1.4.4.6.6 1.3.6 2 0 1.9-1.5 3.4-3.4 3.4s-3.4-1.5-3.4-3.4c0-.7.2-1.4.6-2zm10.7 8c0 1-.8 1.9-1.9 1.9h-12c-1 0-1.9-.8-1.9-1.9v-8h2.9c-.3.6-.4 1.3-.4 2 0 2.9 2.4 5.3 5.3 5.3s5.3-2.4 5.3-5.3c0-.7-.1-1.4-.4-2h2.9v8z"/></svg>