<svg id="Layer_1" xmlns="http://www.w3.org/2000/svg" viewBox="0 0 50 50"><style>.st0{fill:#979797}</style><title>026F239F-6ED5-494D-8315-A9DBBFEA9652</title><path class="st0" d="M35.7 48.6H13.9c-.2 0-.4 0-.5-.1-.8-.3-1.2-1.2-.9-1.9l.8-2.1c.2-.6.8-.9 1.4-.9h2c.2 0 .4-.1.5-.3l.6-1.4c.2-.6.8-.9 1.4-.9h2.4l1-6.2c-.4-.1-1-.4-2.2-.9-4.2-2.3-6.8-7.9-8.9-13-1.5-3.7-2.9-12.3-3.6-17-.1-1 .1-1.7.6-2.3.5-.6 1.3-1 2.1-1H39.7c1.5.2 2.5 1.6 2.3 3.1-.7 4.8-2 13.4-3.6 17-2.1 5.1-4.7 10.7-8.9 13-1.2.5-1.8.8-2.2.9l1 6.2h2.1c.6 0 1.1.3 1.3.8l.8 1.5c.1.2.3.3.4.3h1.8c.6 0 1.1.3 1.4.9l1 2.2c.1.2.1.4.1.6 0 .9-.6 1.5-1.5 1.5zm-21-4c-.2 0-.4.1-.5.3l-.8 2.1c-.1.3 0 .5.3.6H35.8c.3 0 .5-.2.5-.5v-.2l-1-2.2c-.1-.2-.3-.3-.5-.3H33c-.6 0-1.1-.3-1.3-.8l-.8-1.5c-.1-.2-.3-.3-.4-.3H19.1c-.2 0-.4.1-.5.3l-.6 1.6c-.2.6-.8.9-1.4.9h-1.9zm7.9-3.7h4.7L26.1 34l.4-.1s.6-.2 2.5-1.1c3.9-2.1 6.4-7.5 8.4-12.4 1.5-3.7 3-13 3.5-16.8.1-.9-.5-1.8-1.4-1.9H10.6c-.5 0-1 .2-1.3.6-.3.3-.5.8-.4 1.3.5 3.8 2 13.1 3.5 16.8 2 4.9 4.5 10.4 8.4 12.5 1.9.8 2.5 1 2.5 1l.4.1-1.1 6.9z"/><path class="st0" d="M37 23.3v-1c7.5 0 10.6-10.7 11.6-15.3.1-.3 0-.6-.2-.8s-.4-.4-.7-.4H41v-1h6.8c.6 0 1.2.3 1.5.7.4.5.5 1.1.4 1.7C48.6 12 45.2 23.3 37 23.3zm-24 0C4.7 23.3 1.4 12 .4 7.2v-.4c0-.5.2-1 .6-1.4s.9-.6 1.4-.6H9v1H2.3c-.3 0-.5.1-.7.3-.2.2-.3.4-.3.7V7c1 4.6 4.1 15.3 11.6 15.3v1z"/></svg>