<svg version="1" xmlns="http://www.w3.org/2000/svg" width="346.667" height="346.667" viewBox="0 0 260.000000 260.000000"><path d="M73 11.7c-7.2 1.2-18.4 4.9-26 8.5-4.7 2.2-8.7 4.4-9 4.7-.3.4-1.8 1.5-3.3 2.4C21.1 36 4.9 58 2.5 71.3c-.4 2-1.1 4-1.6 4.2-.4.3-.8 24.1-.8 52.9 0 49 .1 52.8 1.9 59.2 5.4 18.7 17.6 35 34.5 46.2 3.9 2.6 7.2 4.7 7.5 4.7.3 0 1.4.6 2.6 1.2 2.8 1.6 11.8 5.1 14.6 5.8 15.8 3.6 14.8 3.6 71.7 3.2 30.6-.1 56.7-.6 58-1 10.2-2.9 13.7-4 14.6-4.7.6-.4 2-.9 3.2-1.2 3.5-.9 17.7-9.7 22.3-13.9 2.3-2.2 4.6-3.9 5.1-3.9s.9-.4.9-.8c0-.5 1.4-2.4 3.1-4.3 6.4-7 15.5-22.8 16.6-28.8.2-1.3.6-2.8.9-3.3.3-.4.8-1.8 1.2-3 1-3.5 1.2-104.7.2-105.3-.5-.3-.7-1.2-.3-2 .3-.9.1-2.1-.5-2.8-.6-.7-1.3-2.4-1.5-3.7-1.5-7.9-13.7-27.1-22.3-35-5.2-4.8-11-9-12.3-9-.6 0-1.1-.4-1.1-.8 0-.9-11.4-6.7-17.5-9-1.6-.7-6.8-2.1-11.5-3.2-8-1.9-11.7-2-62.5-1.9-29.7.1-55.1.4-56.5.6z"/></svg>