<svg width="25" height="20" viewBox="0 0 25 20" xmlns="http://www.w3.org/2000/svg"><title>3E1AB176-E2A5-4816-8479-983A4F0B934F</title><path d="M22.094 4.979c.01.217.015.437.015.656C22.11 12.308 17.032 20 7.741 20A14.28 14.28 0 0 1 0 17.733c.395.047.797.07 1.205.07 2.366 0 4.543-.807 6.271-2.16a5.055 5.055 0 0 1-4.717-3.508 5.09 5.09 0 0 0 2.28-.085A5.05 5.05 0 0 1 .99 7.035a5.03 5.03 0 0 0 2.287.63A5.046 5.046 0 0 1 1.03 3.464c0-.926.249-1.794.684-2.54A14.339 14.339 0 0 0 12.12 6.202a5.044 5.044 0 0 1-.13-1.151 5.05 5.05 0 0 1 8.735-3.456A10.08 10.08 0 0 0 23.934.37a5.072 5.072 0 0 1-2.223 2.794 10.04 10.04 0 0 0 2.9-.795 10.158 10.158 0 0 1-2.517 2.611z" fill="#989898" fill-rule="evenodd"/></svg>